<svg width="540" height="480" viewBox="0 0 540 480" fill="none" xmlns="http://www.w3.org/2000/svg">
<mask id="mask0_1393_11137" style="mask-type:luminance" maskUnits="userSpaceOnUse" x="46" y="326" width="216" height="69">
<path d="M46.0977 326.907H261.488V394.642H46.0977V326.907Z" fill="white"/>
</mask>
<g mask="url(#mask0_1393_11137)">
<g opacity="0.100006">
<path fill-rule="evenodd" clip-rule="evenodd" d="M153.793 394.173C212.852 394.173 261.02 379.169 261.02 360.775C261.02 342.379 212.852 327.376 153.793 327.376C94.7361 327.376 46.5664 342.379 46.5664 360.775C46.5664 379.169 94.7361 394.173 153.793 394.173Z" fill="#0D173D"/>
</g>
</g>
<mask id="mask1_1393_11137" style="mask-type:luminance" maskUnits="userSpaceOnUse" x="278" y="327" width="216" height="68">
<path d="M278.982 327.376H493.436V394.173H278.982V327.376Z" fill="white"/>
</mask>
<g mask="url(#mask1_1393_11137)">
<g opacity="0.100006">
<path fill-rule="evenodd" clip-rule="evenodd" d="M386.208 394.173C445.267 394.173 493.436 379.169 493.436 360.775C493.436 342.379 445.267 327.376 386.208 327.376C327.15 327.376 278.982 342.379 278.982 360.775C278.982 379.169 327.15 394.173 386.208 394.173Z" fill="#0D173D"/>
</g>
</g>
<path fill-rule="evenodd" clip-rule="evenodd" d="M136.718 264.372C146.508 269.65 147.334 287.119 138.563 303.387C129.791 319.657 114.745 328.567 104.954 323.288C95.1641 318.009 94.3381 300.541 103.108 284.274C111.881 268.003 126.928 259.094 136.718 264.372Z" fill="#636F7F"/>
<path d="M136.718 264.372C146.508 269.65 147.334 287.119 138.563 303.387C129.791 319.657 114.745 328.567 104.954 323.288C95.1641 318.009 94.3381 300.541 103.108 284.274C111.881 268.003 126.928 259.094 136.718 264.372Z" stroke="#0D173D" stroke-width="2" stroke-miterlimit="10" stroke-linejoin="round"/>
<path fill-rule="evenodd" clip-rule="evenodd" d="M132.148 261.909C132.922 262.326 133.64 262.821 134.302 263.383C124.588 260.55 111.188 269.29 103.108 284.273C95.0319 299.255 95.0947 315.253 102.799 321.812C101.967 321.569 101.158 321.241 100.384 320.824C90.5938 315.545 89.7678 298.077 98.5381 281.809C107.31 265.539 122.357 256.629 132.148 261.909Z" fill="#47515E"/>
<path d="M132.148 261.909C132.922 262.326 133.64 262.821 134.302 263.383C124.588 260.55 111.188 269.29 103.108 284.273C95.0319 299.255 95.0947 315.253 102.799 321.812C101.967 321.569 101.158 321.241 100.384 320.824C90.5938 315.545 89.7678 298.077 98.5381 281.809C107.31 265.539 122.357 256.629 132.148 261.909Z" stroke="#0D173D" stroke-width="2" stroke-miterlimit="10" stroke-linejoin="round"/>
<path fill-rule="evenodd" clip-rule="evenodd" d="M125.632 318.316C125.632 318.316 117.502 322.094 116.976 323.062C116.448 324.028 115.569 324.731 121.281 326.577C126.995 328.422 147.561 336.333 148.88 337.124C150.198 337.914 150.286 339.409 152.659 339.057C155.031 338.706 167.688 334.663 169.446 333.609C171.203 332.554 167.776 330.444 166.37 329.565C164.963 328.687 149.319 322.446 147.913 321.919C146.507 321.391 134.289 318.403 132.62 318.227C130.95 318.052 128.577 317.172 125.632 318.316Z" fill="#DBE0E6"/>
<path d="M125.632 318.316C125.632 318.316 117.502 322.094 116.976 323.062C116.448 324.028 115.569 324.731 121.281 326.577C126.995 328.422 147.561 336.333 148.88 337.124C150.198 337.914 150.286 339.409 152.659 339.057C155.031 338.706 167.688 334.663 169.446 333.609C171.203 332.554 167.776 330.444 166.37 329.565C164.963 328.687 149.319 322.446 147.913 321.919C146.507 321.391 134.289 318.403 132.62 318.227C130.95 318.052 128.577 317.172 125.632 318.316Z" stroke="#0D173D" stroke-width="2" stroke-miterlimit="2.613" stroke-linecap="round" stroke-linejoin="round"/>
<path fill-rule="evenodd" clip-rule="evenodd" d="M484.162 390.954L397.811 362.477L370.39 374.079L363.007 371.618V361.423L378.124 356.852L368.982 354.04L342.968 361.774L287.42 351.931V344.196L294.099 342.79L342.615 350.788L353.515 347.009V329.079L361.601 332.243V344.636L377.596 339.011L381.99 342.087L399.92 335.759V343.845L390.428 346.306L390.78 350.173L397.107 351.227L405.896 347.36V331.65L415.959 328.154V331.319V345.557L423.517 342.744L429.142 344.502V351.358L415.256 356.103L484.162 379.307V390.954Z" fill="#DBE0E6"/>
<path d="M484.162 390.954L397.811 362.477L370.39 374.079L363.007 371.618V361.423L378.124 356.852L368.982 354.04L342.968 361.774L287.42 351.931V344.196L294.099 342.79L342.615 350.788L353.515 347.009V329.079L361.601 332.243V344.636L377.596 339.011L381.99 342.087L399.92 335.759V343.845L390.428 346.306L390.78 350.173L397.107 351.227L405.896 347.36V331.65L415.959 328.154V331.319V345.557L423.517 342.744L429.142 344.502V351.358L415.256 356.103L484.162 379.307V390.954Z" stroke="#0D173D" stroke-width="2" stroke-miterlimit="2.613" stroke-linecap="round" stroke-linejoin="round"/>
<path fill-rule="evenodd" clip-rule="evenodd" d="M345.67 325.304C352.294 327.545 376.876 337.269 378.166 338.043C379.456 338.816 379.574 340.328 381.946 339.976C384.32 339.625 396.976 335.582 398.734 334.527C400.491 333.473 397.064 331.362 395.657 330.483C394.251 329.606 378.606 323.365 377.2 322.837C375.795 322.31 363.577 319.322 361.907 319.147C360.703 319.019 359.134 318.527 357.25 318.69C349.776 321.401 341.121 324.277 345.67 325.304Z" fill="#DBE0E6"/>
<path d="M345.67 325.304C352.294 327.545 376.876 337.269 378.166 338.043C379.456 338.816 379.574 340.328 381.946 339.976C384.32 339.625 396.976 335.582 398.734 334.527C400.491 333.473 397.064 331.362 395.657 330.483C394.251 329.606 378.606 323.365 377.2 322.837C375.795 322.31 363.577 319.322 361.907 319.147C360.703 319.019 359.134 318.527 357.25 318.69C349.776 321.401 341.121 324.277 345.67 325.304Z" stroke="#0D173D" stroke-width="2" stroke-miterlimit="2.613" stroke-linecap="round" stroke-linejoin="round"/>
<path d="M363.006 361.423L371.575 365.198L398.644 355.179L481.436 382.776" stroke="#0D173D" stroke-width="2" stroke-miterlimit="2.613" stroke-linecap="round" stroke-linejoin="round"/>
<path d="M429.141 344.502L405.938 352.893L415.253 356.103" stroke="#0D173D" stroke-width="2" stroke-miterlimit="2.613" stroke-linecap="round" stroke-linejoin="round"/>
<path d="M405.895 347.36L414.112 348.587" stroke="#0D173D" stroke-width="2" stroke-miterlimit="2.613" stroke-linecap="round" stroke-linejoin="round"/>
<path d="M287.418 344.196L343.228 354.606L357.642 349.508" stroke="#0D173D" stroke-width="2" stroke-miterlimit="2.613" stroke-linecap="round" stroke-linejoin="round"/>
<path d="M364.939 346.871L379.969 349.597V343.093" stroke="#0D173D" stroke-width="2" stroke-miterlimit="2.613" stroke-linecap="round" stroke-linejoin="round"/>
<path d="M378.123 356.852L388.67 356.364V345.817" stroke="#0D173D" stroke-width="2" stroke-miterlimit="2.613" stroke-linecap="round" stroke-linejoin="round"/>
<path fill-rule="evenodd" clip-rule="evenodd" d="M373.026 210.158C382.817 214.971 383.643 230.897 374.872 245.73C366.1 260.564 351.054 268.688 341.263 263.875C331.473 259.062 330.647 243.136 339.417 228.302C348.19 213.469 363.236 205.345 373.026 210.158Z" fill="#636F7F"/>
<path d="M373.026 210.158C382.817 214.971 383.643 230.897 374.872 245.73C366.1 260.564 351.054 268.688 341.263 263.875C331.473 259.062 330.647 243.136 339.417 228.302C348.19 213.469 363.236 205.345 373.026 210.158Z" stroke="#0D173D" stroke-width="2" stroke-miterlimit="10" stroke-linejoin="round"/>
<path fill-rule="evenodd" clip-rule="evenodd" d="M368.457 207.911C369.23 208.292 369.948 208.743 370.611 209.257C360.896 206.673 347.496 214.642 339.417 228.302C331.34 241.962 331.403 256.55 339.108 262.53C338.274 262.308 337.467 262.01 336.693 261.628C326.902 256.816 326.076 240.889 334.848 226.056C343.62 211.223 358.668 203.098 368.457 207.911Z" fill="#47515E"/>
<path d="M368.457 207.911C369.23 208.292 369.948 208.743 370.611 209.257C360.896 206.673 347.496 214.642 339.417 228.302C331.34 241.962 331.403 256.55 339.108 262.53C338.274 262.308 337.467 262.01 336.693 261.628C326.902 256.816 326.076 240.889 334.848 226.056C343.62 211.223 358.668 203.098 368.457 207.911Z" stroke="#0D173D" stroke-width="2" stroke-miterlimit="10" stroke-linejoin="round"/>
<path fill-rule="evenodd" clip-rule="evenodd" d="M147.727 213.511C147.727 213.511 154.23 202.612 164.25 197.866C174.269 193.12 182.004 193.472 182.004 193.472C182.004 193.472 199.231 197.514 200.989 214.565C202.747 231.616 186.926 238.472 185.345 239.79C183.762 241.109 178.578 244.271 177.084 244.799C175.59 245.327 174.623 245.942 174.623 245.942C174.623 245.942 173.393 245.854 171.459 244.535C169.525 243.217 168.471 241.811 168.471 241.811C168.471 241.811 159.418 247.172 156.693 248.491L153.969 249.809C153.969 249.809 147.64 248.315 142.015 241.811C136.39 235.307 135.424 230.473 135.424 230.473C135.424 230.473 142.367 224.233 145.268 220.277C148.168 216.322 147.727 213.511 147.727 213.511Z" fill="#0D173D"/>
<path d="M147.727 213.511C147.727 213.511 154.23 202.612 164.25 197.866C174.269 193.12 182.004 193.472 182.004 193.472C182.004 193.472 199.231 197.514 200.989 214.565C202.747 231.616 186.926 238.472 185.345 239.79C183.762 241.109 178.578 244.271 177.084 244.799C175.59 245.327 174.623 245.942 174.623 245.942C174.623 245.942 173.393 245.854 171.459 244.535C169.525 243.217 168.471 241.811 168.471 241.811C168.471 241.811 159.418 247.172 156.693 248.491L153.969 249.809C153.969 249.809 147.64 248.315 142.015 241.811C136.39 235.307 135.424 230.473 135.424 230.473C135.424 230.473 142.367 224.233 145.268 220.277C148.168 216.322 147.727 213.511 147.727 213.511Z" stroke="#0D173D" stroke-width="2" stroke-miterlimit="2.613" stroke-linecap="round" stroke-linejoin="round"/>
<path fill-rule="evenodd" clip-rule="evenodd" d="M169.438 250.335C170.141 249.281 174.623 245.941 174.623 245.941C174.623 245.941 173.393 245.854 171.459 244.535C169.526 243.217 168.471 241.811 168.471 241.811C168.471 241.811 159.418 247.172 156.693 248.49L153.969 249.809C153.969 249.809 153.919 249.85 153.826 249.928C153.466 250.922 153.108 251.984 152.827 252.973C151.911 256.195 153.442 256.663 154.322 258.598C155.2 260.531 155.903 262.727 157.134 267.649C158.364 272.572 160.473 278.9 162.934 284.7C165.395 290.502 168.208 305.355 168.032 306.674C167.856 307.992 165.132 307.2 163.989 307.816C162.846 308.431 162.672 310.595 162.672 310.595L179.898 317.979C179.898 317.979 180.513 313.266 179.809 311.42C179.106 309.574 177.875 306.147 177.7 303.686C177.524 301.225 178.578 286.546 176.997 271.078C175.414 255.609 168.735 251.39 169.438 250.335Z" fill="white"/>
<path d="M169.438 250.335C170.141 249.281 174.623 245.941 174.623 245.941C174.623 245.941 173.393 245.854 171.459 244.535C169.526 243.217 168.471 241.811 168.471 241.811C168.471 241.811 159.418 247.172 156.693 248.49L153.969 249.809C153.969 249.809 153.919 249.85 153.826 249.928C153.466 250.922 153.108 251.984 152.827 252.973C151.911 256.195 153.442 256.663 154.322 258.598C155.2 260.531 155.903 262.727 157.134 267.649C158.364 272.572 160.473 278.9 162.934 284.7C165.395 290.502 168.208 305.355 168.032 306.674C167.856 307.992 165.132 307.2 163.989 307.816C162.846 308.431 162.672 310.595 162.672 310.595L179.898 317.979C179.898 317.979 180.513 313.266 179.809 311.42C179.106 309.574 177.875 306.147 177.7 303.686C177.524 301.225 178.578 286.546 176.997 271.078C175.414 255.609 168.735 251.39 169.438 250.335Z" stroke="#0D173D" stroke-width="2" stroke-miterlimit="2.613" stroke-linecap="round" stroke-linejoin="round"/>
<path fill-rule="evenodd" clip-rule="evenodd" d="M137.71 203.312C140.523 205.598 147.727 213.51 147.727 213.51C147.727 213.51 154.231 202.612 164.251 197.865C174.27 193.12 182.004 193.471 182.004 193.471C177.52 189.871 171.549 182.13 171.197 178.438C170.846 174.747 167.506 169.826 167.33 167.891C167.154 165.958 163.99 159.279 159.596 155.587C155.201 151.895 150.279 152.423 150.279 152.423C150.279 152.423 148.698 151.016 145.534 149.786C142.369 148.556 137.271 149.083 133.58 147.326C129.889 145.568 129.361 143.019 129.361 143.019C129.361 143.019 124.966 143.283 121.626 144.073C118.285 144.865 116.353 143.898 116.353 143.898C116.353 143.898 116.089 143.107 115.035 140.558C113.98 138.01 110.112 136.076 109.497 136.603C108.882 137.13 109.322 139.679 109.322 139.679L106.773 138.536C106.773 138.536 106.421 134.669 106.069 132.911C105.718 131.154 103.872 129.484 103.872 129.484C103.872 129.484 103.519 133.263 103.697 135.284C103.872 137.306 104.926 138.01 104.926 138.536C104.926 139.064 104.839 140.031 104.926 143.37C105.015 146.711 107.476 147.853 108.355 149.26C109.234 150.666 109.848 153.83 110.728 154.357C111.605 154.885 114.859 154.181 114.859 154.181C114.859 154.181 115.122 155.061 115.122 155.851C115.122 156.642 114.155 158.664 114.155 158.664C114.155 158.664 108.882 160.421 103.96 167.101C99.0382 173.781 100.796 175.89 99.3888 177.648C97.9826 179.406 95.1701 185.559 94.4679 189.776C93.7638 193.995 93.5885 202.785 93.5885 205.421C93.5885 208.058 92.8854 211.574 92.7101 212.804C92.5338 214.035 88.1398 224.231 87.4366 229.152C86.7326 234.074 86.4701 242.951 86.2938 243.391C86.1185 243.831 85.9423 244.27 85.151 245.764C84.3616 247.258 85.151 247.434 84.4488 249.104C83.7448 250.774 82.9544 251.126 81.5482 252.971C80.1429 254.816 80.0538 255.959 80.0538 255.959C80.0538 255.959 79.4388 260.003 79.1744 260.969C78.911 261.936 79.526 262.464 80.4935 263.782C81.4601 265.1 83.7448 264.925 84.3607 264.925C84.9757 264.925 86.2938 265.363 87.1732 265.363C88.0526 265.363 90.3373 265.276 91.4791 263.957C92.6219 262.639 91.7435 260.618 91.7435 260.618L85.6788 262.024C85.6788 262.024 85.5907 260.969 85.3273 259.915C85.0638 258.86 84.3607 256.399 85.3273 256.311C86.2938 256.223 88.7547 254.201 88.7547 254.201C88.7547 254.201 93.1498 256.662 93.8529 257.277C94.556 257.893 95.0829 259.3 94.9957 260.09C94.9085 260.881 93.6766 261.496 93.4132 263.342C93.1498 265.188 94.9957 265.451 94.9957 265.451C94.9957 265.451 96.2257 263.87 96.8407 263.254C97.4557 262.639 98.1588 261.145 98.2479 259.826C98.3351 258.508 98.0716 255.696 97.6319 254.465C97.1932 253.235 93.6766 249.631 94.0291 247.258C94.3798 244.886 100.621 234.25 103.609 227.834C106.596 221.418 107.387 215.441 107.651 213.596C107.914 211.751 108.706 211.926 110.902 208.322C113.1 204.718 118.023 189.338 118.023 189.338C118.023 189.338 119.691 191.799 122.241 193.645C124.789 195.49 128.393 196.809 128.393 196.809C128.393 196.809 134.898 201.026 137.71 203.312Z" fill="white"/>
<path d="M137.71 203.312C140.523 205.598 147.727 213.51 147.727 213.51C147.727 213.51 154.231 202.612 164.251 197.865C174.27 193.12 182.004 193.471 182.004 193.471C177.52 189.871 171.549 182.13 171.197 178.438C170.846 174.747 167.506 169.826 167.33 167.891C167.154 165.958 163.99 159.279 159.596 155.587C155.201 151.895 150.279 152.423 150.279 152.423C150.279 152.423 148.698 151.016 145.534 149.786C142.369 148.556 137.271 149.083 133.58 147.326C129.889 145.568 129.361 143.019 129.361 143.019C129.361 143.019 124.966 143.283 121.626 144.073C118.285 144.865 116.353 143.898 116.353 143.898C116.353 143.898 116.089 143.107 115.035 140.558C113.98 138.01 110.112 136.076 109.497 136.603C108.882 137.13 109.322 139.679 109.322 139.679L106.773 138.536C106.773 138.536 106.421 134.669 106.069 132.911C105.718 131.154 103.872 129.484 103.872 129.484C103.872 129.484 103.519 133.263 103.697 135.284C103.872 137.306 104.926 138.01 104.926 138.536C104.926 139.064 104.839 140.031 104.926 143.37C105.015 146.711 107.476 147.853 108.355 149.26C109.234 150.666 109.848 153.83 110.728 154.357C111.605 154.885 114.859 154.181 114.859 154.181C114.859 154.181 115.122 155.061 115.122 155.851C115.122 156.642 114.155 158.664 114.155 158.664C114.155 158.664 108.882 160.421 103.96 167.101C99.0382 173.781 100.796 175.89 99.3888 177.648C97.9826 179.406 95.1701 185.559 94.4679 189.776C93.7638 193.995 93.5885 202.785 93.5885 205.421C93.5885 208.058 92.8854 211.574 92.7101 212.804C92.5338 214.035 88.1398 224.231 87.4366 229.152C86.7326 234.074 86.4701 242.951 86.2938 243.391C86.1185 243.831 85.9423 244.27 85.151 245.764C84.3616 247.258 85.151 247.434 84.4488 249.104C83.7448 250.774 82.9544 251.126 81.5482 252.971C80.1429 254.816 80.0538 255.959 80.0538 255.959C80.0538 255.959 79.4388 260.003 79.1744 260.969C78.911 261.936 79.526 262.464 80.4935 263.782C81.4601 265.1 83.7448 264.925 84.3607 264.925C84.9757 264.925 86.2938 265.363 87.1732 265.363C88.0526 265.363 90.3373 265.276 91.4791 263.957C92.6219 262.639 91.7435 260.618 91.7435 260.618L85.6788 262.024C85.6788 262.024 85.5907 260.969 85.3273 259.915C85.0638 258.86 84.3607 256.399 85.3273 256.311C86.2938 256.223 88.7547 254.201 88.7547 254.201C88.7547 254.201 93.1498 256.662 93.8529 257.277C94.556 257.893 95.0829 259.3 94.9957 260.09C94.9085 260.881 93.6766 261.496 93.4132 263.342C93.1498 265.188 94.9957 265.451 94.9957 265.451C94.9957 265.451 96.2257 263.87 96.8407 263.254C97.4557 262.639 98.1588 261.145 98.2479 259.826C98.3351 258.508 98.0716 255.696 97.6319 254.465C97.1932 253.235 93.6766 249.631 94.0291 247.258C94.3798 244.886 100.621 234.25 103.609 227.834C106.596 221.418 107.387 215.441 107.651 213.596C107.914 211.751 108.706 211.926 110.902 208.322C113.1 204.718 118.023 189.338 118.023 189.338C118.023 189.338 119.691 191.799 122.241 193.645C124.789 195.49 128.393 196.809 128.393 196.809C128.393 196.809 134.898 201.026 137.71 203.312Z" stroke="#0D173D" stroke-width="2" stroke-miterlimit="2.613" stroke-linecap="round" stroke-linejoin="round"/>
<mask id="mask2_1393_11137" style="mask-type:luminance" maskUnits="userSpaceOnUse" x="100" y="151" width="75" height="49">
<path d="M100.443 151.863H174.786V199.447H100.443V151.863Z" fill="white"/>
</mask>
<g mask="url(#mask2_1393_11137)">
<g opacity="0.800003">
<path fill-rule="evenodd" clip-rule="evenodd" d="M156.064 199.151C156.064 199.151 147.274 196.513 143.144 196.426C139.012 196.338 133.533 196.188 129.945 194.286C126.356 192.383 124.16 187.109 123.544 185.528C122.928 183.945 121.434 179.815 118.709 178.145C115.985 176.475 110.008 175.069 107.987 175.508C105.966 175.947 101.802 179.613 100.692 179.551C99.5821 179.488 102.45 175.156 104.12 171.729C105.789 168.301 110.623 163.994 113.348 162.676C116.073 161.357 122.664 161.182 123.982 160.654C125.301 160.127 124.95 156.084 128.201 153.974C131.454 151.865 134.618 153.184 135.585 153.887C136.552 154.589 138.574 151.778 140.42 151.865C142.264 151.953 144.373 152.217 146.308 153.183C148.241 154.151 149.472 154.59 151.845 155.117C154.218 155.644 160.633 156.7 164.15 163.731C167.665 170.762 168.633 174.981 169.599 178.32C170.566 181.661 171.796 184.209 171.796 184.209C171.796 184.209 174.873 187.373 174.785 188.164C174.696 188.955 171.006 186.318 166.787 184.385C162.567 182.452 160.019 182.1 158.613 180.694C157.206 179.288 149.823 165.224 146.747 161.094C143.671 156.963 139.539 155.029 139.012 154.941C138.486 154.854 138.486 155.996 139.539 156.963C140.595 157.93 150.262 170.322 153.338 175.244C156.415 180.166 158.084 182.1 158.525 183.067C158.964 184.033 158.613 184.737 158.261 186.846C157.91 188.955 158.261 191.68 159.756 194.141C161.248 196.602 161.952 196.778 161.952 198.008C161.952 199.239 158.173 199.854 156.064 199.151Z" fill="#1570EF"/>
</g>
</g>
<path d="M118.021 189.338C118.021 189.338 118.462 185.997 120.132 184.328C121.801 182.658 122.329 179.581 122.329 179.581" stroke="#0D173D" stroke-width="2" stroke-miterlimit="2.613" stroke-linecap="round" stroke-linejoin="round"/>
<path d="M99.7949 176.947C99.7949 176.947 104.488 171.581 109.585 170.175" stroke="#0D173D" stroke-width="2" stroke-miterlimit="2.613" stroke-linecap="round" stroke-linejoin="round"/>
<path d="M108.049 212.336C108.049 212.336 106.951 213.064 105.721 213.064" stroke="#0D173D" stroke-width="2" stroke-miterlimit="2.613" stroke-linecap="round" stroke-linejoin="round"/>
<path d="M92.9746 237.323C92.9746 237.323 97.8965 228.797 98.248 222.557" stroke="#0D173D" stroke-width="2" stroke-miterlimit="2.613" stroke-linecap="round" stroke-linejoin="round"/>
<path fill-rule="evenodd" clip-rule="evenodd" d="M102.643 124.471C102.291 127.195 103.521 128.338 103.872 129.484C103.872 129.484 105.717 131.154 106.068 132.912C106.42 134.67 106.771 138.537 106.771 138.537L109.32 139.68C109.32 139.68 108.881 137.131 109.497 136.603C110.111 136.076 113.979 138.009 115.034 140.558C116.088 143.107 116.352 143.898 116.352 143.898C116.352 143.898 118.285 144.865 121.625 144.074C124.965 143.282 129.359 143.019 129.359 143.019C129.359 143.019 131.208 136.248 131.032 133.171C130.856 130.096 128.923 128.426 128.923 128.426C128.923 128.426 129.976 125.789 127.253 122.01C124.529 118.23 113.453 117.439 111.695 118.582C109.938 119.725 107.74 119.637 105.631 120.076C103.521 120.515 102.995 121.746 102.643 124.471Z" fill="#0D173D"/>
<path d="M102.643 124.471C102.291 127.195 103.521 128.338 103.872 129.484C103.872 129.484 105.717 131.154 106.068 132.912C106.42 134.67 106.771 138.537 106.771 138.537L109.32 139.68C109.32 139.68 108.881 137.131 109.497 136.603C110.111 136.076 113.979 138.009 115.034 140.558C116.088 143.107 116.352 143.898 116.352 143.898C116.352 143.898 118.285 144.865 121.625 144.074C124.965 143.282 129.359 143.019 129.359 143.019C129.359 143.019 131.208 136.248 131.032 133.171C130.856 130.096 128.923 128.426 128.923 128.426C128.923 128.426 129.976 125.789 127.253 122.01C124.529 118.23 113.453 117.439 111.695 118.582C109.938 119.725 107.74 119.637 105.631 120.076C103.521 120.515 102.995 121.746 102.643 124.471Z" stroke="#0D173D" stroke-width="2" stroke-miterlimit="2.613" stroke-linecap="round" stroke-linejoin="round"/>
<path d="M113.335 138.342C113.335 138.342 113.981 139.367 113.849 140.905C113.717 142.443 112.925 142.707 112.925 143.63C112.925 144.553 111.828 144.773 111.212 144.465C110.596 144.157 110.377 142.487 110.377 142.487" stroke="#0D173D" stroke-width="2" stroke-miterlimit="2.613" stroke-linecap="round" stroke-linejoin="round"/>
<path d="M112.779 144.147C112.779 144.147 113.717 147.233 113.892 149.431C114.069 151.628 114.069 152.463 114.069 152.463" stroke="#0D173D" stroke-width="2" stroke-miterlimit="2.613" stroke-linecap="round" stroke-linejoin="round"/>
<path d="M159.098 201.003C159.098 201.003 154.279 199.089 148.83 200.319" stroke="#0D173D" stroke-width="2" stroke-miterlimit="2.613" stroke-linecap="round" stroke-linejoin="round"/>
<path d="M174.816 194.271C174.816 194.271 175.021 191.178 175.637 190.035" stroke="#0D173D" stroke-width="2" stroke-miterlimit="2.613" stroke-linecap="round" stroke-linejoin="round"/>
<path d="M170.892 283.989C170.892 283.989 165.53 279.067 164.211 271.333C162.893 263.599 164.123 259.643 164.123 259.643" stroke="#0D173D" stroke-width="2" stroke-miterlimit="2.613" stroke-linecap="round" stroke-linejoin="round"/>
<path d="M169.437 250.335C169.437 250.335 165.968 251.733 165.09 253.139" stroke="#0D173D" stroke-width="2" stroke-miterlimit="2.613" stroke-linecap="round" stroke-linejoin="round"/>
<path fill-rule="evenodd" clip-rule="evenodd" d="M345.551 109.349L344.056 109.876C344.056 109.876 343.265 107.239 342.299 106.536C341.332 105.833 340.717 106.008 340.188 104.69C339.661 103.372 338.608 101.351 338.608 101.351C338.608 101.351 336.409 97.571 337.201 93.3532C337.992 89.1344 339.926 90.8041 343.001 89.2216C346.078 87.64 348.626 86.4972 352.406 85.8822C356.186 85.2663 361.371 90.0128 361.371 90.0128C361.371 90.0128 365.062 91.0675 366.556 95.2863C368.051 99.505 367.786 101.79 367.699 103.548C367.611 105.306 367.786 108.646 367.786 108.646C367.786 108.646 365.852 110.491 363.568 111.018C361.282 111.546 359.525 112.073 358.119 111.282C356.713 110.492 354.516 108.909 352.934 108.558C351.351 108.206 349.243 104.867 347.309 104.69C345.375 104.515 344.759 106.448 345.551 109.349Z" fill="#0D173D"/>
<path d="M345.551 109.349L344.056 109.876C344.056 109.876 343.265 107.239 342.299 106.536C341.332 105.833 340.717 106.008 340.188 104.69C339.661 103.372 338.608 101.351 338.608 101.351C338.608 101.351 336.409 97.571 337.201 93.3532C337.992 89.1344 339.926 90.8041 343.001 89.2216C346.078 87.64 348.626 86.4972 352.406 85.8822C356.186 85.2663 361.371 90.0128 361.371 90.0128C361.371 90.0128 365.062 91.0675 366.556 95.2863C368.051 99.505 367.786 101.79 367.699 103.548C367.611 105.306 367.786 108.646 367.786 108.646C367.786 108.646 365.852 110.491 363.568 111.018C361.282 111.546 359.525 112.073 358.119 111.282C356.713 110.492 354.516 108.909 352.934 108.558C351.351 108.206 349.243 104.867 347.309 104.69C345.375 104.515 344.759 106.448 345.551 109.349Z" stroke="#0D173D" stroke-width="2" stroke-miterlimit="2.613" stroke-linecap="round" stroke-linejoin="round"/>
<path fill-rule="evenodd" clip-rule="evenodd" d="M405.491 144.675C407.776 155.222 406.545 163.835 407.072 165.066C407.6 166.296 411.467 170.866 411.467 170.866C411.467 170.866 411.819 166.647 412.697 161.374C413.577 156.102 415.686 152.937 415.686 152.937C415.686 152.937 413.401 151.53 410.588 149.772C407.776 148.016 405.491 144.675 405.491 144.675ZM367.784 108.645C367.784 108.645 370.421 111.546 372.971 113.216C375.518 114.886 379.562 114.27 381.847 114.447C384.132 114.622 387.033 115.15 387.033 115.15C387.033 115.15 394.151 110.667 402.237 114.885C410.323 119.104 410.85 121.213 410.85 121.213C410.85 121.213 419.288 124.905 423.155 131.41C427.022 137.913 430.538 143.538 432.823 145.471C435.108 147.405 435.635 149.339 434.757 151.272C433.877 153.207 433.526 152.766 432.911 155.227C432.296 157.688 429.043 165.95 425.704 169.466C422.364 172.981 418.233 176.058 418.233 176.058C418.233 176.058 407.247 178.255 403.379 178.518C399.512 178.782 393.096 181.857 390.02 184.846C386.944 187.834 380.353 195.921 380.353 195.921C380.353 195.921 373.321 183.087 371.563 181.506C369.807 179.923 365.06 175.529 362.95 172.189C360.841 168.85 357.325 162.17 357.325 162.17C357.325 162.17 356.095 163.136 355.918 164.718C355.744 166.301 353.195 176.144 348.799 181.066C344.406 185.988 342.033 190.647 341.593 192.316C341.154 193.986 343.966 197.413 344.406 198.117C344.846 198.821 344.758 201.193 344.58 202.512C344.406 203.83 343.79 205.412 343.35 206.292C342.912 207.17 341.504 208.488 341.065 209.104C340.627 209.718 338.606 209.104 338.341 208.137C338.077 207.17 340.362 204.621 340.538 204.093C340.714 203.566 340.889 201.721 340.362 201.37C339.836 201.018 337.99 199.436 337.198 198.908C336.407 198.381 327.267 200.315 327.267 200.315C327.267 200.315 325.86 201.37 325.86 203.303C325.86 205.237 328.058 206.818 328.058 206.818C328.058 206.818 332.627 206.027 333.33 205.412C334.034 204.796 336.759 204.709 336.759 204.709C336.759 204.709 336.494 207.433 335.44 208.312C334.385 209.191 331.924 208.576 331.134 208.576C330.343 208.576 329.289 208.84 327.882 208.663C326.475 208.488 325.685 207.433 325.245 206.818C324.807 206.203 323.399 204.534 323.311 203.391C323.223 202.248 323.839 200.49 324.103 199.084C324.367 197.678 326.74 194.426 327.705 193.635C328.673 192.843 330.606 191.086 330.958 190.647C331.31 190.207 331.31 188.186 332.277 186.955C333.244 185.725 333.683 185.11 333.683 185.11C333.683 185.11 335.441 175.178 335.791 170.607C336.143 166.037 335.968 162.873 337.726 159.357C339.483 155.842 341.418 155.139 343 150.393C344.58 145.647 346.251 138.264 346.69 136.946C347.13 135.627 346.954 135.1 347.921 131.847C348.887 128.596 351.7 124.992 351.7 124.992C351.7 124.992 349.063 126.574 348.273 125.432C347.481 124.289 347.218 123.058 345.9 121.037C344.58 119.016 343.527 118.664 342.384 116.73C341.242 114.797 340.889 110.666 340.889 110.666C340.889 110.666 339.615 109.875 339.22 108.82C338.898 107.962 338.344 104.021 338.503 101.161C338.567 101.285 338.606 101.351 338.606 101.351C338.606 101.351 339.659 103.372 340.187 104.691C340.715 106.009 341.33 105.833 342.298 106.536C343.264 107.239 344.055 109.876 344.055 109.876L345.549 109.348C344.758 106.449 345.373 104.515 347.307 104.691C349.241 104.866 351.349 108.207 352.932 108.558C354.514 108.91 356.712 110.491 358.118 111.282C359.524 112.073 361.281 111.546 363.566 111.019C365.851 110.491 367.784 108.645 367.784 108.645Z" fill="white"/>
<path d="M405.491 144.675C407.776 155.222 406.545 163.835 407.072 165.066C407.6 166.296 411.467 170.866 411.467 170.866C411.467 170.866 411.819 166.647 412.697 161.374C413.577 156.102 415.686 152.937 415.686 152.937C415.686 152.937 413.401 151.53 410.588 149.772C407.776 148.016 405.491 144.675 405.491 144.675ZM367.784 108.645C367.784 108.645 370.421 111.546 372.971 113.216C375.518 114.886 379.562 114.27 381.847 114.447C384.132 114.622 387.033 115.15 387.033 115.15C387.033 115.15 394.151 110.667 402.237 114.885C410.323 119.104 410.85 121.213 410.85 121.213C410.85 121.213 419.288 124.905 423.155 131.41C427.022 137.913 430.538 143.538 432.823 145.471C435.108 147.405 435.635 149.339 434.757 151.272C433.877 153.207 433.526 152.766 432.911 155.227C432.296 157.688 429.043 165.95 425.704 169.466C422.364 172.981 418.233 176.058 418.233 176.058C418.233 176.058 407.247 178.255 403.379 178.518C399.512 178.782 393.096 181.857 390.02 184.846C386.944 187.834 380.353 195.921 380.353 195.921C380.353 195.921 373.321 183.087 371.563 181.506C369.807 179.923 365.06 175.529 362.95 172.189C360.841 168.85 357.325 162.17 357.325 162.17C357.325 162.17 356.095 163.136 355.918 164.718C355.744 166.301 353.195 176.144 348.799 181.066C344.406 185.988 342.033 190.647 341.593 192.316C341.154 193.986 343.966 197.413 344.406 198.117C344.846 198.821 344.758 201.193 344.58 202.512C344.406 203.83 343.79 205.412 343.35 206.292C342.912 207.17 341.504 208.488 341.065 209.104C340.627 209.718 338.606 209.104 338.341 208.137C338.077 207.17 340.362 204.621 340.538 204.093C340.714 203.566 340.889 201.721 340.362 201.37C339.836 201.018 337.99 199.436 337.198 198.908C336.407 198.381 327.267 200.315 327.267 200.315C327.267 200.315 325.86 201.37 325.86 203.303C325.86 205.237 328.058 206.818 328.058 206.818C328.058 206.818 332.627 206.027 333.33 205.412C334.034 204.796 336.759 204.709 336.759 204.709C336.759 204.709 336.494 207.433 335.44 208.312C334.385 209.191 331.924 208.576 331.134 208.576C330.343 208.576 329.289 208.84 327.882 208.663C326.475 208.488 325.685 207.433 325.245 206.818C324.807 206.203 323.399 204.534 323.311 203.391C323.223 202.248 323.839 200.49 324.103 199.084C324.367 197.678 326.74 194.426 327.705 193.635C328.673 192.843 330.606 191.086 330.958 190.647C331.31 190.207 331.31 188.186 332.277 186.955C333.244 185.725 333.683 185.11 333.683 185.11C333.683 185.11 335.441 175.178 335.791 170.607C336.143 166.037 335.968 162.873 337.726 159.357C339.483 155.842 341.418 155.139 343 150.393C344.58 145.647 346.251 138.264 346.69 136.946C347.13 135.627 346.954 135.1 347.921 131.847C348.887 128.596 351.7 124.992 351.7 124.992C351.7 124.992 349.063 126.574 348.273 125.432C347.481 124.289 347.218 123.058 345.9 121.037C344.58 119.016 343.527 118.664 342.384 116.73C341.242 114.797 340.889 110.666 340.889 110.666C340.889 110.666 339.615 109.875 339.22 108.82C338.898 107.962 338.344 104.021 338.503 101.161C338.567 101.285 338.606 101.351 338.606 101.351C338.606 101.351 339.659 103.372 340.187 104.691C340.715 106.009 341.33 105.833 342.298 106.536C343.264 107.239 344.055 109.876 344.055 109.876L345.549 109.348C344.758 106.449 345.373 104.515 347.307 104.691C349.241 104.866 351.349 108.207 352.932 108.558C354.514 108.91 356.712 110.491 358.118 111.282C359.524 112.073 361.281 111.546 363.566 111.019C365.851 110.491 367.784 108.645 367.784 108.645Z" stroke="#0D173D" stroke-width="2" stroke-miterlimit="2.613" stroke-linecap="round" stroke-linejoin="round"/>
<path d="M351.701 124.992C351.701 124.992 357.415 116.993 364.71 119.278" stroke="#0D173D" stroke-width="2" stroke-miterlimit="2.613" stroke-linecap="round" stroke-linejoin="round"/>
<path d="M349.374 105.776C349.374 105.776 350.603 107.281 350.56 108.819C350.515 110.357 350.339 111.061 350.382 111.72C350.426 112.379 349.108 112.906 348.406 112.818C347.702 112.73 347.395 111.676 347.395 111.676" stroke="#0D173D" stroke-width="2" stroke-miterlimit="2.613" stroke-linecap="round" stroke-linejoin="round"/>
<path d="M350.339 112.641C350.061 112.305 351.481 115.498 351.657 117.563C351.833 119.629 351.569 121.211 351.569 121.211" stroke="#0D173D" stroke-width="2" stroke-miterlimit="2.613" stroke-linecap="round" stroke-linejoin="round"/>
<path d="M354.076 158.298C354.076 158.298 353.021 159.968 350.648 159.968C348.275 159.968 348.275 156.364 348.275 156.364" stroke="#0D173D" stroke-width="2" stroke-miterlimit="2.613" stroke-linecap="round" stroke-linejoin="round"/>
<path d="M347.572 147.838C347.572 147.838 351.791 138.17 354.955 136.06" stroke="#0D173D" stroke-width="2" stroke-miterlimit="2.613" stroke-linecap="round" stroke-linejoin="round"/>
<path d="M337.201 179.654C337.201 179.654 343.001 176.402 345.639 170.601" stroke="#0D173D" stroke-width="2" stroke-miterlimit="2.613" stroke-linecap="round" stroke-linejoin="round"/>
<path fill-rule="evenodd" clip-rule="evenodd" d="M380.354 195.921C380.354 195.921 370.16 211.03 367.7 219.819C365.239 228.608 364.186 232.476 364.186 232.476C364.186 232.476 371.391 240.034 377.016 241.791C382.641 243.549 389.835 243.406 389.835 243.406L391.944 240.417C391.944 240.417 394.419 241.969 399.34 242.495C404.263 243.022 405.843 243.022 405.843 243.022C405.843 243.022 410.239 237.749 414.107 230.718C417.973 223.686 417.973 221.05 417.973 221.05C417.973 221.05 426.587 213.14 427.817 199.956C429.047 186.772 418.234 176.058 418.234 176.058C418.234 176.058 407.248 178.254 403.381 178.518C399.513 178.781 393.098 181.858 390.022 184.846C386.945 187.835 380.354 195.921 380.354 195.921Z" fill="#0D173D"/>
<path d="M380.354 195.921C380.354 195.921 370.16 211.03 367.7 219.819C365.239 228.608 364.186 232.476 364.186 232.476C364.186 232.476 371.391 240.034 377.016 241.791C382.641 243.549 389.835 243.406 389.835 243.406L391.944 240.417C391.944 240.417 394.419 241.969 399.34 242.495C404.263 243.022 405.843 243.022 405.843 243.022C405.843 243.022 410.239 237.749 414.107 230.718C417.973 223.686 417.973 221.05 417.973 221.05C417.973 221.05 426.587 213.14 427.817 199.956C429.047 186.772 418.234 176.058 418.234 176.058C418.234 176.058 407.248 178.254 403.381 178.518C399.513 178.781 393.098 181.858 390.022 184.846C386.945 187.835 380.354 195.921 380.354 195.921Z" stroke="#0D173D" stroke-width="2" stroke-miterlimit="2.613" stroke-linecap="round" stroke-linejoin="round"/>
<path fill-rule="evenodd" clip-rule="evenodd" d="M387.125 248.383C387.125 248.383 388.882 252.954 388.882 255.59C388.882 258.227 391.167 261.216 391.167 262.446C391.167 263.676 392.75 272.993 393.628 279.321C394.508 285.649 396.265 296.196 396.265 300.766C396.265 305.337 395.738 305.6 394.946 306.655C394.156 307.709 386.949 308.764 385.806 308.94C384.663 309.116 381.5 308.852 381.5 308.852C381.5 308.852 383.433 297.514 384.752 292.768C386.07 288.022 387.827 276.069 386.861 271.235C385.894 266.401 382.29 259.897 381.675 258.227C381.058 256.558 380.796 254.975 381.236 254.272C381.675 253.569 387.125 248.383 387.125 248.383ZM364.185 232.476C364.185 232.476 362.426 243.022 362.426 247.417C362.426 251.811 362.954 252.69 364.009 259.545C365.063 266.401 365.591 283.452 367.7 293.472C369.808 303.491 369.721 311.225 369.106 313.335C368.491 315.445 360.581 318.609 359 319.048C357.417 319.487 356.45 319.224 355.571 319.575C354.691 319.927 354.517 320.367 353.989 320.894C353.462 321.42 352.671 321.949 353.111 322.652C353.55 323.355 355.221 323.707 355.748 324.322C356.275 324.937 359.526 326.167 362.69 326.08C365.855 325.992 370.25 326.08 371.656 327.134C373.062 328.189 377.808 328.629 379.214 328.364C380.621 328.101 382.202 327.749 382.642 326.431C383.081 325.113 383.433 323.003 382.993 321.069C382.554 319.136 382.028 317.818 381.94 316.498C381.851 315.18 381.851 314.39 381.851 314.39C381.851 314.39 386.07 315.005 387.652 315.884C389.233 316.763 392.574 315.884 393.892 315.796C395.21 315.708 398.462 317.642 400.221 318.96C401.978 320.278 404.351 321.246 406.548 320.718C408.746 320.191 410.327 318.345 410.239 316.411C410.152 314.478 409.449 309.644 409.01 306.831C408.57 304.018 410.591 292.768 411.383 287.583C412.173 282.397 413.754 273.696 413.228 265.434C412.7 257.173 405.581 250.933 404.702 248.472C403.824 246.011 405.844 243.022 405.844 243.022C405.844 243.022 404.262 243.022 399.34 242.495C394.419 241.968 391.945 240.418 391.945 240.418L389.835 243.405C389.835 243.405 382.642 243.55 377.017 241.792C371.392 240.034 364.185 232.476 364.185 232.476Z" fill="white"/>
<path d="M387.125 248.383C387.125 248.383 388.882 252.954 388.882 255.59C388.882 258.227 391.167 261.216 391.167 262.446C391.167 263.676 392.75 272.993 393.628 279.321C394.508 285.649 396.265 296.196 396.265 300.766C396.265 305.337 395.738 305.6 394.946 306.655C394.156 307.709 386.949 308.764 385.806 308.94C384.663 309.116 381.5 308.852 381.5 308.852C381.5 308.852 383.433 297.514 384.752 292.768C386.07 288.022 387.827 276.069 386.861 271.235C385.894 266.401 382.29 259.897 381.675 258.227C381.058 256.558 380.796 254.975 381.236 254.272C381.675 253.569 387.125 248.383 387.125 248.383ZM364.185 232.476C364.185 232.476 362.426 243.022 362.426 247.417C362.426 251.811 362.954 252.69 364.009 259.545C365.063 266.401 365.591 283.452 367.7 293.472C369.808 303.491 369.721 311.225 369.106 313.335C368.491 315.445 360.581 318.609 359 319.048C357.417 319.487 356.45 319.224 355.571 319.575C354.691 319.927 354.517 320.367 353.989 320.894C353.462 321.42 352.671 321.949 353.111 322.652C353.55 323.355 355.221 323.707 355.748 324.322C356.275 324.937 359.526 326.167 362.69 326.08C365.855 325.992 370.25 326.08 371.656 327.134C373.062 328.189 377.808 328.629 379.214 328.364C380.621 328.101 382.202 327.749 382.642 326.431C383.081 325.113 383.433 323.003 382.993 321.069C382.554 319.136 382.028 317.818 381.94 316.498C381.851 315.18 381.851 314.39 381.851 314.39C381.851 314.39 386.07 315.005 387.652 315.884C389.233 316.763 392.574 315.884 393.892 315.796C395.21 315.708 398.462 317.642 400.221 318.96C401.978 320.278 404.351 321.246 406.548 320.718C408.746 320.191 410.327 318.345 410.239 316.411C410.152 314.478 409.449 309.644 409.01 306.831C408.57 304.018 410.591 292.768 411.383 287.583C412.173 282.397 413.754 273.696 413.228 265.434C412.7 257.173 405.581 250.933 404.702 248.472C403.824 246.011 405.844 243.022 405.844 243.022C405.844 243.022 404.262 243.022 399.34 242.495C394.419 241.968 391.945 240.418 391.945 240.418L389.835 243.405C389.835 243.405 382.642 243.55 377.017 241.792C371.392 240.034 364.185 232.476 364.185 232.476Z" stroke="#0D173D" stroke-width="2" stroke-miterlimit="2.613" stroke-linecap="round" stroke-linejoin="round"/>
<path d="M387.125 248.384C387.125 248.384 390.833 242.78 390.89 241.912" stroke="#0D173D" stroke-width="2" stroke-miterlimit="2.613" stroke-linecap="round" stroke-linejoin="round"/>
<path d="M378.642 294.919C378.642 294.919 372.666 287.712 372.49 277.341" stroke="#0D173D" stroke-width="2" stroke-miterlimit="2.613" stroke-linecap="round" stroke-linejoin="round"/>
<path d="M381.644 253.784C381.644 253.784 376.885 255.456 375.127 257.829" stroke="#0D173D" stroke-width="2" stroke-miterlimit="2.613" stroke-linecap="round" stroke-linejoin="round"/>
<path d="M406.154 289.47C406.154 289.47 400.529 279.714 400.176 272.683C399.825 265.652 400.529 259.938 400.529 259.938" stroke="#0D173D" stroke-width="2" stroke-miterlimit="2.613" stroke-linecap="round" stroke-linejoin="round"/>
<path d="M404.683 245.64C404.683 245.64 401.055 250.533 400.879 252.556" stroke="#0D173D" stroke-width="2" stroke-miterlimit="2.613" stroke-linecap="round" stroke-linejoin="round"/>
<path d="M381.5 308.852C381.5 308.852 381.553 310.96 381.851 314.39" stroke="#0D173D" stroke-width="2" stroke-miterlimit="2.613" stroke-linecap="round" stroke-linejoin="round"/>
<path d="M399.123 304.146C399.123 304.146 398.596 305.465 398.596 306.827C398.596 308.189 400.792 310.606 401.1 310.957" stroke="#0D173D" stroke-width="2" stroke-miterlimit="2.613" stroke-linecap="round" stroke-linejoin="round"/>
<path d="M371.613 312.012C371.613 312.012 371.086 313.286 371.568 315.352C372.053 317.417 373.063 318.34 373.063 318.34" stroke="#0D173D" stroke-width="2" stroke-miterlimit="2.613" stroke-linecap="round" stroke-linejoin="round"/>
<path fill-rule="evenodd" clip-rule="evenodd" d="M254.875 390.035L168.523 361.558L141.102 373.16L133.719 370.699V360.504L148.836 355.933L139.695 353.121L113.68 360.855L58.1328 351.011V343.277L64.8125 341.871L113.328 349.869L124.227 346.089V328.16L132.312 331.324V345.386L149.188 338.707L152.703 341.168L170.633 334.839V342.925L161.141 345.386L161.492 349.254L167.82 350.308L176.609 346.441V326.754L125.633 303.199V318.316L120.359 322.535V302.847H116.141L103.792 258.462H101.23L100.276 252.442L102.165 252.53L102.824 251.871H111.262V256.881L110.76 257.75L120.226 292.607L254.171 349.56V360.986L186.672 330.4V344.637L194.23 341.826L199.856 343.584V350.439L185.968 355.185L254.875 378.387V390.035Z" fill="#DBE0E6"/>
<path d="M254.875 390.035L168.523 361.558L141.102 373.16L133.719 370.699V360.504L148.836 355.933L139.695 353.121L113.68 360.855L58.1328 351.011V343.277L64.8125 341.871L113.328 349.869L124.227 346.089V328.16L132.312 331.324V345.386L149.188 338.707L152.703 341.168L170.633 334.839V342.925L161.141 345.386L161.492 349.254L167.82 350.308L176.609 346.441V326.754L125.633 303.199V318.316L120.359 322.535V302.847H116.141L103.792 258.462H101.23L100.276 252.442L102.165 252.53L102.824 251.871H111.262V256.881L110.76 257.75L120.226 292.607L254.171 349.56V360.986L186.672 330.4V344.637L194.23 341.826L199.856 343.584V350.439L185.968 355.185L254.875 378.387V390.035Z" stroke="#0D173D" stroke-width="2" stroke-miterlimit="2.613" stroke-linecap="round" stroke-linejoin="round"/>
<path fill-rule="evenodd" clip-rule="evenodd" d="M134.76 231.327C134.76 231.327 129.359 238.119 128.129 241.635C126.898 245.151 123.91 246.382 122.679 251.303C121.45 256.225 123.032 260.971 123.382 262.553C123.735 264.135 125.14 273.276 130.063 283.647C134.985 294.018 140.873 310.366 141.576 312.827C142.279 315.288 140.786 317.397 140.786 317.397C140.786 317.397 132.787 320.033 131.029 320.737C129.272 321.44 128.393 321.528 127.69 322.055C126.987 322.582 126.108 323.374 126.987 323.901C127.865 324.428 128.481 325.043 129.799 325.835C131.117 326.625 135.424 326.801 137.446 326.977C139.467 327.153 142.895 328.031 145.883 328.471C148.872 328.911 152.036 328.822 153.354 327.504C154.672 326.186 154.321 322.406 153.442 320.122C152.563 317.836 150.278 298.676 150.804 294.281C151.332 289.887 151.157 280.922 149.223 275.473C147.289 270.023 141.841 263.343 141.841 261.586C141.841 259.828 153.969 249.809 153.969 249.809C153.969 249.809 147.641 248.315 142.016 241.811C136.391 235.307 134.76 231.327 134.76 231.327Z" fill="white"/>
<path d="M134.76 231.327C134.76 231.327 129.359 238.119 128.129 241.635C126.898 245.151 123.91 246.382 122.679 251.303C121.45 256.225 123.032 260.971 123.382 262.553C123.735 264.135 125.14 273.276 130.063 283.647C134.985 294.018 140.873 310.366 141.576 312.827C142.279 315.288 140.786 317.397 140.786 317.397C140.786 317.397 132.787 320.033 131.029 320.737C129.272 321.44 128.393 321.528 127.69 322.055C126.987 322.582 126.108 323.374 126.987 323.901C127.865 324.428 128.481 325.043 129.799 325.835C131.117 326.625 135.424 326.801 137.446 326.977C139.467 327.153 142.895 328.031 145.883 328.471C148.872 328.911 152.036 328.822 153.354 327.504C154.672 326.186 154.321 322.406 153.442 320.122C152.563 317.836 150.278 298.676 150.804 294.281C151.332 289.887 151.157 280.922 149.223 275.473C147.289 270.023 141.841 263.343 141.841 261.586C141.841 259.828 153.969 249.809 153.969 249.809C153.969 249.809 147.641 248.315 142.016 241.811C136.391 235.307 134.76 231.327 134.76 231.327Z" stroke="#0D173D" stroke-width="2" stroke-miterlimit="2.613" stroke-linecap="round" stroke-linejoin="round"/>
<path d="M145.753 295.592C145.753 295.592 137.229 286.626 136.526 278.716C135.822 270.806 135.822 269.575 135.822 269.575" stroke="#0D173D" stroke-width="2" stroke-miterlimit="2.613" stroke-linecap="round" stroke-linejoin="round"/>
<path d="M141.9 261.965C141.9 261.965 138.547 259.116 135.646 258.325" stroke="#0D173D" stroke-width="2" stroke-miterlimit="2.613" stroke-linecap="round" stroke-linejoin="round"/>
<path fill-rule="evenodd" clip-rule="evenodd" d="M153.554 320.43C159.486 322.568 170.786 326.723 174.106 328.509C175.131 329.062 175.948 329.454 176.611 329.725C178.904 330.665 179.352 330.149 180.17 329.74C181.225 329.213 182.103 328.334 182.103 328.334L152.57 315.645C152.906 317.878 153.219 319.542 153.442 320.122C153.481 320.222 153.517 320.325 153.554 320.43Z" fill="#DBE0E6"/>
<path d="M153.554 320.43C159.486 322.568 170.786 326.723 174.106 328.509C175.131 329.062 175.948 329.454 176.611 329.725C178.904 330.665 179.352 330.149 180.17 329.74C181.225 329.213 182.103 328.334 182.103 328.334L152.57 315.645C152.906 317.878 153.219 319.542 153.442 320.122C153.481 320.222 153.517 320.325 153.554 320.43Z" stroke="#0D173D" stroke-width="2" stroke-miterlimit="2.613" stroke-linecap="round" stroke-linejoin="round"/>
<path d="M133.719 360.504L142.288 364.279L169.359 354.26L252.151 381.857" stroke="#0D173D" stroke-width="2" stroke-miterlimit="2.613" stroke-linecap="round" stroke-linejoin="round"/>
<path d="M199.857 343.584L176.654 351.974L185.97 355.185" stroke="#0D173D" stroke-width="2" stroke-miterlimit="2.613" stroke-linecap="round" stroke-linejoin="round"/>
<path d="M176.609 346.441L184.827 347.668" stroke="#0D173D" stroke-width="2" stroke-miterlimit="2.613" stroke-linecap="round" stroke-linejoin="round"/>
<path d="M58.1328 343.277L113.943 353.687L128.357 348.59" stroke="#0D173D" stroke-width="2" stroke-miterlimit="2.613" stroke-linecap="round" stroke-linejoin="round"/>
<path d="M135.652 345.953L150.681 348.677V342.174" stroke="#0D173D" stroke-width="2" stroke-miterlimit="2.613" stroke-linecap="round" stroke-linejoin="round"/>
<path d="M148.836 355.933L159.384 355.445V344.898" stroke="#0D173D" stroke-width="2" stroke-miterlimit="2.613" stroke-linecap="round" stroke-linejoin="round"/>
<path fill-rule="evenodd" clip-rule="evenodd" d="M134.139 292.964C132.791 289.683 131.392 286.448 130.063 283.647C129.776 283.043 129.502 282.442 129.237 281.848L123.914 294.174L132.133 297.67L134.139 292.964Z" fill="#DBE0E6"/>
<path d="M134.139 292.964C132.791 289.683 131.392 286.448 130.063 283.647C129.776 283.043 129.502 282.442 129.237 281.848L123.914 294.174L132.133 297.67L134.139 292.964Z" stroke="#0D173D" stroke-width="2" stroke-miterlimit="2.613" stroke-linecap="round" stroke-linejoin="round"/>
<path fill-rule="evenodd" clip-rule="evenodd" d="M141.899 261.965C142.191 263.041 143.518 265.075 145.008 267.471L150.595 254.369L151.701 251.718C148.191 254.715 141.84 260.313 141.84 261.587C141.84 261.694 141.86 261.822 141.899 261.965Z" fill="#DBE0E6"/>
<path d="M141.899 261.965C142.191 263.041 143.518 265.075 145.008 267.471L150.595 254.369L151.701 251.718C148.191 254.715 141.84 260.313 141.84 261.587C141.84 261.694 141.86 261.822 141.899 261.965Z" stroke="#0D173D" stroke-width="2" stroke-miterlimit="2.613" stroke-linecap="round" stroke-linejoin="round"/>
<path fill-rule="evenodd" clip-rule="evenodd" d="M382.913 320.729C387.593 322.22 395.126 324.704 398.119 326.172C402.601 328.368 404.139 329.292 404.491 329.951C404.843 330.61 406.161 330.698 406.863 330.477C407.567 330.258 420.971 325.512 420.971 325.512C420.971 325.512 422.025 324.897 421.892 323.886C421.762 322.875 414.026 319.799 412.401 318.876C411.787 318.527 410.902 318.116 410.039 317.74C409.553 319.137 408.231 320.315 406.547 320.718C404.351 321.246 401.977 320.279 400.22 318.96C398.461 317.642 395.209 315.709 393.891 315.796C392.573 315.884 389.232 316.764 387.652 315.884C386.069 315.005 381.85 314.39 381.85 314.39C381.85 314.39 381.85 315.18 381.939 316.498C382.021 317.74 382.492 318.979 382.913 320.729Z" fill="#DBE0E6"/>
<path d="M382.913 320.729C387.593 322.22 395.126 324.704 398.119 326.172C402.601 328.368 404.139 329.292 404.491 329.951C404.843 330.61 406.161 330.698 406.863 330.477C407.567 330.258 420.971 325.512 420.971 325.512C420.971 325.512 422.025 324.897 421.892 323.886C421.762 322.875 414.026 319.799 412.401 318.876C411.787 318.527 410.902 318.116 410.039 317.74C409.553 319.137 408.231 320.315 406.547 320.718C404.351 321.246 401.977 320.279 400.22 318.96C398.461 317.642 395.209 315.709 393.891 315.796C392.573 315.884 389.232 316.764 387.652 315.884C386.069 315.005 381.85 314.39 381.85 314.39C381.85 314.39 381.85 315.18 381.939 316.498C382.021 317.74 382.492 318.979 382.913 320.729Z" stroke="#0D173D" stroke-width="2" stroke-miterlimit="2.613" stroke-linecap="round" stroke-linejoin="round"/>
<path fill-rule="evenodd" clip-rule="evenodd" d="M346.332 203.802C347.551 202.058 347.566 199.651 346.442 196.618H355.538L356.549 197.584V202.111L355.522 202.386L358.022 236.497L362.064 236.585L363.822 241.331L358.373 266.468C357.228 267.988 350.675 266.896 351.348 264.847L355.385 245.989L352.572 243.705L346.332 203.802Z" fill="#DBE0E6"/>
<path d="M346.332 203.802C347.551 202.058 347.566 199.651 346.442 196.618H355.538L356.549 197.584V202.111L355.522 202.386L358.022 236.497L362.064 236.585L363.822 241.331L358.373 266.468C357.228 267.988 350.675 266.896 351.348 264.847L355.385 245.989L352.572 243.705L346.332 203.802Z" stroke="#0D173D" stroke-width="2" stroke-miterlimit="2.613" stroke-linecap="round" stroke-linejoin="round"/>
<path fill-rule="evenodd" clip-rule="evenodd" d="M344.407 198.117C344.846 198.821 344.758 201.193 344.582 202.511C344.519 202.986 344.398 203.495 344.25 203.994C344.603 203.923 344.922 203.866 345.101 203.846C345.673 203.78 346.442 202.33 346.486 200.484C346.53 198.638 345.827 197.495 345.233 197.429C344.977 197.4 344.456 197.426 343.945 197.463C344.157 197.757 344.324 197.985 344.407 198.117Z" fill="#DBE0E6"/>
<path d="M344.407 198.117C344.846 198.821 344.758 201.193 344.582 202.511C344.519 202.986 344.398 203.495 344.25 203.994C344.603 203.923 344.922 203.866 345.101 203.846C345.673 203.78 346.442 202.33 346.486 200.484C346.53 198.638 345.827 197.495 345.233 197.429C344.977 197.4 344.456 197.426 343.945 197.463C344.157 197.757 344.324 197.985 344.407 198.117Z" stroke="#0D173D" stroke-width="2" stroke-miterlimit="2.613" stroke-linecap="round" stroke-linejoin="round"/>
<path fill-rule="evenodd" clip-rule="evenodd" d="M381.234 254.272C380.794 254.975 381.058 256.558 381.674 258.227C381.939 258.947 382.758 260.563 383.683 262.557L391.939 268.147L400.271 273.787L412.253 281.9L482.187 329.247V317.117L413.31 270.514L400.353 261.748L388.704 253.865L384.434 250.975C383.361 252.022 382.241 253.133 381.644 253.784C381.437 254.01 381.292 254.179 381.234 254.272Z" fill="#DBE0E6"/>
<path d="M381.234 254.272C380.794 254.975 381.058 256.558 381.674 258.227C381.939 258.947 382.758 260.563 383.683 262.557L391.939 268.147L400.271 273.787L412.253 281.9L482.187 329.247V317.117L413.31 270.514L400.353 261.748L388.704 253.865L384.434 250.975C383.361 252.022 382.241 253.133 381.644 253.784C381.437 254.01 381.292 254.179 381.234 254.272Z" stroke="#0D173D" stroke-width="2" stroke-miterlimit="2.613" stroke-linecap="round" stroke-linejoin="round"/>
<path d="M382.068 253.335L474.785 318.122" stroke="#0D173D" stroke-width="2" stroke-miterlimit="2.613" stroke-linecap="round" stroke-linejoin="round"/>
<mask id="mask3_1393_11137" style="mask-type:luminance" maskUnits="userSpaceOnUse" x="349" y="120" width="46" height="61">
<path d="M349.941 120.127H394.065V180.712H349.941V120.127Z" fill="white"/>
</mask>
<g mask="url(#mask3_1393_11137)">
<g opacity="0.800003">
<path fill-rule="evenodd" clip-rule="evenodd" d="M393.908 179.764C393.908 179.764 390.305 175.017 390.305 169.92C390.305 164.822 391.975 161.57 392.326 160.163C392.678 158.757 388.02 142.849 386.174 137.927C384.328 133.005 377.912 124.129 375.364 121.58C372.814 119.031 371.847 121.052 371.847 121.052C371.847 121.052 362.493 118.867 358.205 121.21C351.57 124.835 351.106 127.292 350.05 131.247C348.996 135.202 355.852 129.489 359.278 128.259C362.707 127.028 368.86 129.666 369.475 131.775C370.09 133.884 367.801 145.815 367.363 146.554C366.924 147.292 360.773 156.296 360.158 159.022C359.544 161.746 360.048 165.377 365.245 167.253C370.441 169.129 384.416 175.897 387.931 178.357C391.448 180.818 394.84 181.457 393.908 179.764Z" fill="#1570EF"/>
</g>
</g>
<mask id="mask4_1393_11137" style="mask-type:luminance" maskUnits="userSpaceOnUse" x="376" y="116" width="34" height="56">
<path d="M376.771 116.384H409.699V171.364H376.771V116.384Z" fill="white"/>
</mask>
<g mask="url(#mask4_1393_11137)">
<g opacity="0.800003">
<path fill-rule="evenodd" clip-rule="evenodd" d="M407.269 169.92C407.269 169.92 402.611 164.295 399.184 162.009C395.754 159.724 394.7 158.582 394.173 157.087C393.646 155.594 388.811 138.367 387.405 134.675C386 130.983 378.704 122.546 377.21 120.701C375.717 118.855 378.265 118.679 381.429 120.349C384.593 122.019 385.208 124.217 385.648 122.634C386.087 121.052 388.197 120.173 389.954 120.261C391.712 120.349 389.427 116.569 392.766 116.394C396.107 116.218 406.039 118.592 407.533 119.733C409.027 120.876 409.291 122.107 409.291 122.107C409.291 122.107 404.105 125.358 404.016 128.699C403.928 132.038 406.027 155.243 406.154 159.968C406.28 164.692 406.154 165.656 408.061 167.547C409.291 168.767 411.39 173.8 407.269 169.92Z" fill="#1570EF"/>
</g>
</g>
<path d="M357.326 162.17C357.326 162.17 359.788 155.75 363.127 152.41C366.468 149.07 369.456 142.567 369.984 141.687C370.511 140.809 371.038 135.008 371.038 131.843" stroke="#0D173D" stroke-width="2" stroke-miterlimit="2.613" stroke-linecap="round" stroke-linejoin="round"/>
<path d="M415.688 152.937C415.688 152.937 419.379 154.08 422.279 152.937" stroke="#0D173D" stroke-width="2" stroke-miterlimit="2.613" stroke-linecap="round" stroke-linejoin="round"/>
<path d="M423.598 155.662C423.598 155.662 419.906 165.505 416.918 168.581" stroke="#0D173D" stroke-width="2" stroke-miterlimit="2.613" stroke-linecap="round" stroke-linejoin="round"/>
<path d="M405.492 144.675C405.492 144.675 403.998 131.579 398.021 125.075" stroke="#0D173D" stroke-width="2" stroke-miterlimit="2.613" stroke-linecap="round" stroke-linejoin="round"/>
<path d="M418.235 176.058C418.235 176.058 414.506 174.417 413.583 173.758C412.661 173.099 411.469 170.867 411.469 170.867" stroke="#0D173D" stroke-width="2" stroke-miterlimit="2.613" stroke-linecap="round" stroke-linejoin="round"/>
<path d="M403.787 136.569C403.787 136.569 409.629 141.677 414.902 142.38C420.175 143.083 424.393 143.083 424.393 143.083" stroke="#0D173D" stroke-width="2" stroke-miterlimit="2.613" stroke-linecap="round" stroke-linejoin="round"/>
<path d="M367.904 145.605C367.904 145.605 375.704 141.501 376.584 138.864C377.462 136.228 377.287 132.712 377.287 132.712" stroke="#0D173D" stroke-width="2" stroke-miterlimit="2.613" stroke-linecap="round" stroke-linejoin="round"/>
<path d="M366.739 151.872C366.739 151.872 368.761 160.045 368.233 162.77C367.705 165.495 365.244 167.252 365.244 167.252" stroke="#0D173D" stroke-width="2" stroke-miterlimit="2.613" stroke-linecap="round" stroke-linejoin="round"/>
<path fill-rule="evenodd" clip-rule="evenodd" d="M85.3264 256.311C84.3598 256.399 85.0629 258.86 85.3264 259.915C85.5898 260.969 85.6779 262.024 85.6779 262.024L91.7426 260.618C91.7426 260.618 91.8532 260.873 91.946 261.262L94.8851 260.439C94.9432 260.324 94.9817 260.209 94.9948 260.09C95.082 259.3 94.5551 257.893 93.852 257.278C93.1489 256.663 88.7539 254.202 88.7539 254.202C88.7539 254.202 86.2929 256.223 85.3264 256.311Z" fill="#DBE0E6"/>
<path d="M85.3264 256.311C84.3598 256.399 85.0629 258.86 85.3264 259.915C85.5898 260.969 85.6779 262.024 85.6779 262.024L91.7426 260.618C91.7426 260.618 91.8532 260.873 91.946 261.262L94.8851 260.439C94.9432 260.324 94.9817 260.209 94.9948 260.09C95.082 259.3 94.5551 257.893 93.852 257.278C93.1489 256.663 88.7539 254.202 88.7539 254.202C88.7539 254.202 86.2929 256.223 85.3264 256.311Z" stroke="#0D173D" stroke-width="2" stroke-miterlimit="2.613" stroke-linecap="round" stroke-linejoin="round"/>
<path fill-rule="evenodd" clip-rule="evenodd" d="M327.268 200.315C327.268 200.315 325.861 201.369 325.861 203.303C325.861 205.236 328.06 206.818 328.06 206.818C328.06 206.818 332.629 206.027 333.332 205.412C334.036 204.797 336.76 204.709 336.76 204.709C336.76 204.709 336.703 205.308 336.533 206.033L339.73 205.306C340.13 204.749 340.476 204.286 340.539 204.094C340.716 203.566 340.89 201.721 340.364 201.369C339.837 201.018 337.991 199.435 337.199 198.908C336.408 198.381 327.268 200.315 327.268 200.315Z" fill="#DBE0E6"/>
<path d="M327.268 200.315C327.268 200.315 325.861 201.369 325.861 203.303C325.861 205.236 328.06 206.818 328.06 206.818C328.06 206.818 332.629 206.027 333.332 205.412C334.036 204.797 336.76 204.709 336.76 204.709C336.76 204.709 336.703 205.308 336.533 206.033L339.73 205.306C340.13 204.749 340.476 204.286 340.539 204.094C340.716 203.566 340.89 201.721 340.364 201.369C339.837 201.018 337.991 199.435 337.199 198.908C336.408 198.381 327.268 200.315 327.268 200.315Z" stroke="#0D173D" stroke-width="2" stroke-miterlimit="2.613" stroke-linecap="round" stroke-linejoin="round"/>
<path fill-rule="evenodd" clip-rule="evenodd" d="M99.4858 252.663L96.9648 253.341C97.2873 253.805 97.5358 254.194 97.6314 254.465C98.058 255.658 98.3186 258.337 98.2548 259.701C99.4802 259.218 100.972 258.605 101.507 258.288C102.475 257.717 102.386 256.091 101.727 254.201C101.067 252.311 99.4858 252.663 99.4858 252.663Z" fill="#DBE0E6"/>
<path d="M99.4858 252.663L96.9648 253.341C97.2873 253.805 97.5358 254.194 97.6314 254.465C98.058 255.658 98.3186 258.337 98.2548 259.701C99.4802 259.218 100.972 258.605 101.507 258.288C102.475 257.717 102.386 256.091 101.727 254.201C101.067 252.311 99.4858 252.663 99.4858 252.663Z" stroke="#0D173D" stroke-width="2" stroke-miterlimit="2.613" stroke-linecap="round" stroke-linejoin="round"/>
</svg>
