<?xml version="1.0" encoding="UTF-8" standalone="no"?>
<svg
   id="Layer_1"
   data-name="Layer 1"
   width="200"
   height="112"
   viewBox="0 0 200 112"
   version="1.1"
   sodipodi:docname="Glutes.svg"
   inkscape:version="1.4 (86a8ad7, 2024-10-11)"
   xmlns:inkscape="http://www.inkscape.org/namespaces/inkscape"
   xmlns:sodipodi="http://sodipodi.sourceforge.net/DTD/sodipodi-0.dtd"
   xmlns="http://www.w3.org/2000/svg"
   xmlns:svg="http://www.w3.org/2000/svg">
  <sodipodi:namedview
     id="namedview54"
     pagecolor="#ffffff"
     bordercolor="#000000"
     borderopacity="0.25"
     inkscape:showpageshadow="2"
     inkscape:pageopacity="0.0"
     inkscape:pagecheckerboard="0"
     inkscape:deskcolor="#d1d1d1"
     inkscape:zoom="3.13"
     inkscape:cx="100.15974"
     inkscape:cy="44.888179"
     inkscape:window-width="1920"
     inkscape:window-height="1009"
     inkscape:window-x="-8"
     inkscape:window-y="-8"
     inkscape:window-maximized="1"
     inkscape:current-layer="g54" />
  <defs
     id="defs1">
    <style
       id="style1">.cls-1,.cls-4{fill:#fff;}.cls-1,.cls-2,.cls-3,.cls-4{fill-rule:evenodd;}.cls-2{fill:#2478ff;}.cls-3{fill:none;}.cls-3,.cls-4{stroke:#070836;stroke-linecap:round;stroke-miterlimit:2.6131;stroke-width:0.8px;}</style>
  </defs>
  <g
     id="g54"
     transform="translate(44)">
    <path
       class="cls-4"
       d="m 33.6459,-11.1672 c 0,0 -0.1738,6.519 -0.1738,7.5621 0,1.0431 0.1738,2.5206 0.1738,2.5206 0,0 -2.4336,5.9105 -2.52,10.778 -0.0864,4.8675 0.1738,7.5621 -0.8692,10.9519 -1.043,3.3898 -3.5642,16.6885 -4.3467,26.1627 -0.7825,9.4742 -0.1737,17.3839 1.217,22.9467 1.3907,5.5628 2.8683,6.5187 3.0421,11.1255 0.1738,4.6068 1.13,11.2129 0.5216,15.7326 -0.876964,6.33387 -1.196922,12.73244 -0.9562,19.1222 0.4346,5.9974 2.9552,28.0747 2.9552,34.42 0,6.3453 0.1739,6.8668 -0.0869,8.6051 -0.160186,1.23897 -0.218348,2.48901 -0.1739,3.7375 0,0 -2.9554,5.3023 -3.8244,6.3451 -0.869,1.0428 -2.8245,2.0862 -3.5636,2.738 -0.606839,0.70416 -0.959073,1.59204 -1,2.5207 -0.0869,0.652 0.6518,1.0866 1.521,1.0866 0.8692,0 6.128,-0.3477 6.91,0.0434 1.639736,0.54119 3.392149,0.64599 5.0847,0.3041 1.6079,-0.4344 1.9557,-1.6513 3.0857,-2.26 1.13,-0.6087 3.6073,-0.3912 4.346,-2.0426 0.7387,-1.6514 -0.13,-4.5631 -0.6084,-5.4758 -0.468074,-1.01921 -0.662791,-2.14271 -0.565,-3.26 0,-1.4776 0.7388,-3.3462 0.565,-5.6932 -0.1738,-2.347 -1.0431,-3.2162 -0.6954,-6.1715 0.3477,-2.9553 2.3467,-14.6022 2.6075,-17.7314 0.119913,-2.15992 0.5292,-4.29397 1.2169,-6.345 0.7823,-2.7814 2.8682,-6.0843 2.086,-16.167 -0.7822,-10.0827 -1.2165,-17.7316 -0.6952,-21.0346 0.5213,-3.303 3.9982,-20.687 4.6935,-24.772 0.6953,-4.085 2.5644,-15.7756 1.9995,-20.8169 -0.5649,-5.0413 -0.8692,-7.8226 -0.1738,-9.3439 0.508938,-0.994181 1.274087,-1.834451 2.2164,-2.434 0.942353,0.599532 1.707539,1.439804 2.2165,2.434 0.6954,1.5213 0.3911,4.3024 -0.1738,9.3439 -0.5649,5.0415 1.304,16.7318 1.9994,20.8169 0.6954,4.0851 4.1726,21.4695 4.6943,24.7724 0.5217,3.3029 0.087,10.952 -0.6952,21.0346 -0.7822,10.0826 1.3038,13.3856 2.086,16.167 0.687783,2.05101 1.097105,4.18507 1.217,6.345 0.2608,3.1292 2.26,14.7762 2.6075,17.7314 0.3475,2.9552 -0.5216,3.8245 -0.6954,6.1715 -0.1738,2.347 0.5649,4.2156 0.5649,5.6932 0.09782,1.11728 -0.09687,2.24078 -0.5649,3.26 -0.4781,0.9127 -1.3472,3.8244 -0.6084,5.4758 0.7388,1.6514 3.2159,1.4341 4.3459,2.0426 1.13,0.6085 1.4778,1.8254 3.0858,2.26 1.692584,0.34189 3.445028,0.23708 5.0848,-0.3041 0.7823,-0.3911 6.0409,-0.0434 6.91,-0.0434 0.8691,0 1.608,-0.4346 1.5211,-1.0866 -0.04097,-0.92865 -0.393202,-1.81652 -1,-2.5207 -0.739,-0.6518 -2.6945,-1.6951 -3.5635,-2.738 -0.869,-1.0429 -3.8245,-6.3451 -3.8245,-6.3451 0.04439,-1.2485 -0.01381,-2.49853 -0.174,-3.7375 -0.2606,-1.7383 -0.0868,-2.26 -0.0868,-8.6051 0,-6.3451 2.5206,-28.4225 2.9552,-34.42 0.240752,-6.38976 -0.07917,-12.78832 -0.9561,-19.1222 -0.6085,-4.52 0.3476,-11.1258 0.5215,-15.7326 0.1739,-4.6068 1.6515,-5.5628 3.0421,-11.1255 1.3906,-5.5627 1.9993,-13.4725 1.217,-22.9467 -0.7823,-9.4742 -3.303,-22.7728 -4.346,-26.1627 -1.043,-3.3899 -0.7824,-6.0843 -0.8693,-10.9519 -0.0869,-4.8676 -2.5206,-10.778 -2.5206,-10.778 0,0 0.1742,-1.4779 0.1742,-2.521 0,-1.0431 -0.1738,-7.5621 -0.1738,-7.5621 -16.1923,-0.1777 -31.7879,-0.1919 -47.9803,0 z"
       id="path27"
       sodipodi:nodetypes="cscsssssccsccsccsccssccssccsssscccssssccssccssccsccsccsccssssscscc" />
    <path
       class="cls-3"
       d="m 55.15,35.3023 c 0,0 -5.0242,3.0495 -10.463,2.4877 -4.0322,-0.4167 -7.4315,-4.65 -8.2139,-7.084 -0.7824,-2.434 -1.13,-12.4293 0.087,-15.1239"
       id="path30" />
    <path
       class="cls-3"
       d="m 42.9928,87.8989 c 0,0 -1.3038,2.086 -1.4777,6.6929 -0.1739,4.6069 -0.3477,21.3821 1.2169,26.771"
       id="path31" />
    <path
       class="cls-3"
       d="M 38.7337,78.1637 A 67.89,67.89 0 0 0 40.0814,64.6911 C 39.9075,58.4329 39.7337,49.0457 41.0375,45.0474 a 32.7263,32.7263 0 0 1 2.4334,-5.9109"
       id="path32" />
    <path
       class="cls-3"
       d="m 40.0687,67.2084 c 0,0 1.1427,9.4773 2.1857,14.171 1.043,4.6937 2.6072,9.3441 2.6072,9.3441"
       id="path33" />
    <path
       class="cls-3"
       d="m 47.64,52.349 c 0,0 -1.213,13.6457 -1.3,17.818 -0.087,4.1723 -1.5963,13.4184 -0.348,19.383"
       id="path34" />
    <path
       style="fill:#2478ff"
       d="m 39.386581,2.8753994 c -0.106496,-0.4259851 0.106497,-1.3844516 -0.319488,-1.2779553 -0.425985,0.1064963 0.319488,1.7170506 0.319488,1.2779553 0,-0.8586004 -0.224672,-1.7025616 -0.319488,-2.55591058 -0.01176,-0.10584492 -0.07531,-0.24418458 0,-0.31948882 0.0753,-0.07530424 0.244184,0.07530424 0.319488,0 0.368338,-0.3683378 -0.01852,-0.63280372 0.958467,-0.95846645 1.456603,-0.48553425 7.972367,-1.49589895 9.584664,-0.95846645 0.42599,0.1419965 0.868865,0.4344321 1.277956,0.6389776 0.341333,0.1706667 0.297644,-0.1706666 0.638977,0 0.134709,0.067354 0.176609,0.2718623 0.319489,0.31948885 0.404125,0.13470831 0.864689,-0.10331655 1.277955,0 0.625686,0.15642133 1.072464,0.69597617 1.597445,0.95846645 0.09525,0.04762658 0.212992,0 0.319488,0 0.212993,0.10649627 0.434781,0.19697045 0.638978,0.31948882 0.4566,0.2739594 0.80169,0.72033358 1.27796,0.95846648 0.0953,0.047627 0.21299,0 0.31948,0 0.31949,0.1064962 0.67826,0.132682 0.95847,0.3194888 0.0886,0.059074 -0.0753,0.2441846 0,0.3194888 0.0753,0.075304 0.21299,0 0.31949,0 0.7968,0 2.12538,0.2500077 2.8754,0 0.48977,-0.1632578 1.87758,-0.689333 2.23642,-0.95846645 C 64.17773,0.81558671 64.1162,0.46236856 64.30671,0.31948882 64.57613,0.11742635 64.95249,0.12507353 65.26518,0 c 0.59231,-0.23692573 1.06859,-0.69404072 1.59744,-0.95846645 0.38832,-0.19415975 2.68353,-0.31948885 3.19489,-0.31948885 0.27484,0 1.75192,-0.1650134 1.91693,0 0.42599,0.42598512 -0.1065,1.81043666 0.31949,2.23642175 0.0753,0.0753043 0.24418,-0.0753042 0.31949,0 0.15061,0.15060845 -0.0953,0.44847135 0,0.63897765 0.50959,1.0191885 0.50959,2.4951884 0,3.514377 -0.20247,0.4049381 0,1.4542551 0,1.9169329"
       id="path58" />
    <path
       class="cls-3"
       d="m 31.9986,30.88 a 110.7545,110.7545 0 0 1 1.7315,14.97"
       id="path35" />
    <path
       class="cls-3"
       d="m 30.6081,34.7041 c 0,0 -4.9657,16.7577 -1.3908,30.9432"
       id="path36" />
    <path
       class="cls-3"
       d="m 30.3334,83.647 c 0,0 1.0569,-10.6987 0.3615,-12.6978 A 12.3182,12.3182 0 0 1 30,67.2987"
       id="path37" />
    <path
       class="cls-3"
       d="m 36.1381,84.832 c 0,0 3.7274,3.719 4.3793,5.718"
       id="path38" />
    <path
       class="cls-3"
       d="m 43.5609,5.4112 c 0,0 -6.2209,4.4325 -7.0009,10.1709"
       id="path39" />
    <path
       style="fill:#2478ff"
       d="m 82.747604,-0.31948882 -2.236422,6.38977632 0.958467,5.4313095 -0.319489,11.182109 0.958466,6.070288 2.236422,5.43131 2.875399,2.55591 4.472844,0.319489 L 100,33.226837 l 1.59744,-2.236422 4.15336,1.916933 2.23642,2.8754 5.43131,0.319488 3.83387,-0.319488 4.47284,-4.792333 0.31949,-7.667731 -1.27796,-10.543131 -1.27795,-4.7923326 -2.8754,-3.5143769 L 114.69649,0.63897764 99.041534,0.95846645 89.13738,1.2779553 Z"
       id="path57"
       transform="translate(-44)" />
    <path
       class="cls-3"
       d="m 60.1225,35.3023 c 0,0 6.5506,2.9638 10.463,2.4877 3.503,-0.4263 7.4316,-4.65 8.2139,-7.084 0.7823,-2.434 1.13,-12.4293 -0.0869,-15.1239"
       id="path40" />
    <path
       class="cls-3"
       d="m 72.28,87.8989 c 0,0 1.3038,2.086 1.4777,6.6929 0.1739,4.6069 0.3477,21.3821 -1.2169,26.771"
       id="path41" />
    <path
       class="cls-3"
       d="M 76.5386,78.1637 A 67.885,67.885 0 0 1 75.191,64.6911 c 0.1738,-6.2582 0.3476,-15.6454 -0.9562,-19.6437 a 32.7206,32.7206 0 0 0 -2.4335,-5.9109"
       id="path42" />
    <path
       class="cls-3"
       d="m 75.2036,67.2084 c 0,0 -1.1426,9.4773 -2.1858,14.171 -1.0432,4.6937 -2.6072,9.3441 -2.6072,9.3441"
       id="path43" />
    <path
       class="cls-3"
       d="m 67.6327,52.349 c 0,0 1.213,13.6457 1.3,17.818 0.087,4.1723 1.596,13.4184 0.3478,19.3829"
       id="path44" />
    <path
       class="cls-3"
       d="M 83.2737,30.88 A 110.7354,110.7354 0 0 0 81.5422,45.85"
       id="path45" />
    <path
       class="cls-3"
       d="m 84.6641,34.7041 c 0,0 4.9659,16.7577 1.3908,30.9432"
       id="path46" />
    <path
       class="cls-3"
       d="m 84.9389,83.647 c 0,0 -1.0569,-10.6987 -0.3615,-12.6978 a 12.3182,12.3182 0 0 0 0.6954,-3.6505"
       id="path47" />
    <path
       class="cls-3"
       d="m 79.1343,84.832 c 0,0 -3.7276,3.719 -4.3794,5.718"
       id="path48" />
    <path
       class="cls-3"
       d="m 71.7114,5.4112 c 0,0 6.2206,4.4325 7.0011,10.1709"
       id="path49" />
    <path
       class="cls-3"
       d="m 36.56,15.5821 c 0,0 -3.1975,-10.74 0.3863,-15.8531"
       id="path50" />
    <path
       class="cls-3"
       d="m 57.6361,-11.3058 c 0,0 0.0939,21.1213 0.0939,23.9213"
       id="path51" />
    <path
       class="cls-3"
       d="m 78.7124,15.5821 c 0,0 3.1976,-10.7396 -0.3863,-15.8531"
       id="path52" />
    <path
       class="cls-3"
       d="m 58.6864,17.7234 c 0,0 -1.56,8.7895 -1.05,14.2647"
       id="path53" />
    <path
       class="cls-3"
       d="m 56.1063,17.2433 c 0,0 1.74,10.41 1.53,14.7448"
       id="path54" />
  </g>
</svg>
