<?xml version="1.0" encoding="UTF-8" standalone="no"?>
<svg
   id="Layer_1"
   data-name="Layer 1"
   width="200"
   height="112"
   viewBox="0 0 200 112"
   version="1.1"
   sodipodi:docname="Quads.svg"
   inkscape:version="1.4 (86a8ad7, 2024-10-11)"
   xmlns:inkscape="http://www.inkscape.org/namespaces/inkscape"
   xmlns:sodipodi="http://sodipodi.sourceforge.net/DTD/sodipodi-0.dtd"
   xmlns="http://www.w3.org/2000/svg"
   xmlns:svg="http://www.w3.org/2000/svg">
  <sodipodi:namedview
     id="namedview54"
     pagecolor="#ffffff"
     bordercolor="#000000"
     borderopacity="0.25"
     inkscape:showpageshadow="2"
     inkscape:pageopacity="0.0"
     inkscape:pagecheckerboard="0"
     inkscape:deskcolor="#d1d1d1"
     inkscape:zoom="3.13"
     inkscape:cx="100.15974"
     inkscape:cy="44.888179"
     inkscape:window-width="1920"
     inkscape:window-height="1009"
     inkscape:window-x="-8"
     inkscape:window-y="-8"
     inkscape:window-maximized="1"
     inkscape:current-layer="Layer_1" />
  <defs
     id="defs1">
    <style
       id="style1">.cls-1,.cls-4{fill:#fff;}.cls-1,.cls-2,.cls-3,.cls-4{fill-rule:evenodd;}.cls-2{fill:#2478ff;}.cls-3{fill:none;}.cls-3,.cls-4{stroke:#070836;stroke-linecap:round;stroke-miterlimit:2.6131;stroke-width:0.8px;}</style>
  </defs>
  <path
     class="cls-1"
     d="m 74.1458,-11.1672 c 0.0221,3.9525 -1.2294,6.3083 -0.1251,12.9341 0,0 -2.2086,4.9325 -2.3558,8.319 A 143.7939,143.7939 0 0 1 69.8244,26.135 c -0.9259,4.89 -4.0263,15.226 -4.6635,32.7909 0.688,11.0864 2.89,18.1023 4.9545,23.2078 a 64.8355,64.8355 0 0 0 1.1077,12.2463 25.3941,25.3941 0 0 1 -0.2944,7.1411 c -0.3681,1.3987 -1.8405,6.11 -1.8405,8.4662 v 10.454 l 18.5521,-0.2208 2.2086,-0.8835 A 62.8431,62.8431 0 0 0 88.5974,101.227 120.8884,120.8884 0 0 1 89.8489,87.46 137.73,137.73 0 0 1 93.898,69.4968 c 0.7362,-7.6564 2.0613,-17.0061 1.7669,-31.6564 a 1.9207,1.9207 0 0 1 0.2944,-2.2086 6.22,6.22 0 0 1 0.589,-1.4724 c 1.4776,-0.3352 0.4551,-0.4625 1.62,0 0.9543,0.379 0.923,0.8185 1.196,0.821 0.9627,0.0088 6.6864,-30.1021 -0.607,-43.3731 -6.729,-12.243 -20.6962,-6.4473 -24.6115,-2.7745 z"
     id="path1" />
  <path
     class="cls-1"
     d="m 121.6664,-11.53 c -0.0221,3.9525 0.4279,6.0824 0.1251,12.9341 0,0 1.4439,5.0011 2.3558,8.319 a 143.7939,143.7939 0 0 0 1.84,16.0491 261.2939,261.2939 0 0 1 4.6635,32.7909 74.0356,74.0356 0 0 1 -4.9545,23.2078 64.8355,64.8355 0 0 1 -1.1077,12.2467 25.3941,25.3941 0 0 0 0.2944,7.1411 67.6121,67.6121 0 0 1 1.7016,10.1545 c 0,2.3558 0.1389,8.7657 0.1389,8.7657 l -18.5521,-0.2209 -2.2086,-0.8834 a 62.8431,62.8431 0 0 1 1.2515,-18.11 c -0.4334,-3.2443 -0.5689,-8.0785 -1.4273,-13.8455 -1.6564,-6.9939 -3.092,-11.6687 -3.8733,-17.8846 a 182.68,182.68 0 0 1 -1.7669,-31.6564 c 0.589,-1.4724 -0.4283,-2.0209 -0.3966,-1.9927 a 15.2362,15.2362 0 0 0 -0.8466,-1.362 c -1.4776,-0.3352 -0.6994,-0.4049 -1.26,-0.3263 -1.0169,0.1426 -0.923,0.8185 -1.196,0.821 -0.9627,0.0088 -6.6864,-30.1022 0.607,-43.3731 6.7293,-12.2439 20.6965,-6.4477 24.6118,-2.775 z"
     id="path2" />
  <path
     class="cls-2"
     d="m 70.4453,82.6471 a 7.4669,7.4669 0 0 1 -1.58,-3.6049 16.9977,16.9977 0 0 1 -0.9823,-3.1976 c -2.297,-7.6859 -3.3108,-12.025 -2.9154,-19.3914 0.7715,-14.3736 2.6577,-21 3.0921,-22.13 C 71.638,15.02 71.3288,6.23 73.5815,3.05 a 92.2352,92.2352 0 0 0 10.2479,7.5534 c 0,0 4.0638,13.87 12.3239,23.9411 -1.5018,2.0761 -0.4027,6.2723 -0.2945,10.6012 -0.4564,17.7129 -1.6049,22.8368 -3.6515,32.8638 -1.0036,2.2845 -2.2822,12.589 -7.6712,9.85 -2.4736,-1.7228 -4.373,-8.8787 -14.0908,-5.2124 z"
     id="path3" />
  <path
     class="cls-2"
     d="m 125.0282,82.47 a 7.4669,7.4669 0 0 0 1.58,-3.6049 16.9955,16.9955 0 0 0 0.9823,-3.1976 c 2.297,-7.6859 3.3108,-12.025 2.9154,-19.3914 -0.7715,-14.3736 -2.6576,-21 -3.092,-22.13 -3.578,-19.3031 -3.2688,-28.0933 -5.5215,-31.2737 a 92.2352,92.2352 0 0 1 -10.2479,7.5534 c 0,0 -4.0645,13.8703 -12.3245,23.9415 1.5018,2.0761 0.4027,6.2723 0.2945,10.6012 0.4564,17.7129 1.6049,22.8369 3.6515,32.8638 1.0036,2.2845 2.2822,12.589 7.6712,9.85 2.4738,-1.7223 4.3728,-8.8782 14.091,-5.2123 z"
     id="path4" />
  <path
     class="cls-3"
     d="m 97.7991,33.8071 c 0,0 1.3908,0.3476 1.5648,1.1734 a 3.0394,3.0394 0 0 0 0.869,1.4777 c 0.3477,0.478 -1.1734,6.1279 0.2172,21.4256 a 189.8126,189.8126 0 0 0 5.3889,29.9 c 0.5213,2.26 0.7821,9.3 0.9559,10.43 a 6.1679,6.1679 0 0 1 0,3.8244 c -0.6084,2.0861 -1.5643,12.3425 -1.2167,16.9494 0.7,9.2727 4.2319,20.2354 4.7651,30.0929 0.3368,6.231 -0.36,9.1781 -0.7526,10.6939 -0.3926,1.5158 0.1062,2.2736 0.3224,3.7892 0.2162,1.5156 -0.0736,2.484 -0.9206,4.6315 -0.847,2.1475 -1.5716,3.1154 -0.4,4.6732 1.1716,1.5578 1.957,1.4733 4.3953,1.3892 2.4383,-0.0841 3.7458,-0.1684 4.644,0.3368 0.8982,0.5052 0.409,0.884 3.5408,0.884 3.1318,0 1.6988,-0.0839 3.343,0.2108 1.6442,0.2947 1.7226,-0.8843 1.7226,-0.8843 0,0 0.58,0.9687 1.4079,0.9263 a 1.1723,1.1723 0 0 0 1.06,-0.5474 c 0,0 0.0387,0.1685 0.65,0.0844 a 1.0064,1.0064 0 0 0 0.8,-0.59 c 0,0 -0.0129,0.4212 0.69,0.2106 a 1.0681,1.0681 0 0 0 0.8041,-0.7156 c 0,0 0.5419,-0.6739 0.2039,-1.0108 -0.338,-0.3369 -1.22,-1.3894 -1.9991,-1.5155 a 11.4365,11.4365 0 0 1 -2.8868,-0.926 36.3722,36.3722 0 0 1 -5.6661,-5.4735 c -1.6772,-2.1051 -2.2612,-2.9472 -2.4737,-3.1155 -0.2125,-0.1683 0.2328,-1.9788 -0.0493,-2.7369 -0.2821,-0.7581 0.0564,-1.8943 0.0966,-4.7156 0.0402,-2.8213 2.2055,-12.7568 4.3145,-19.3243 a 45.6121,45.6121 0 0 0 1.51,-7.0676 c 0,0 3.1291,-12.5169 1.2169,-21.5565 -1.9122,-9.0396 -1.6513,-11.56 -1.13,-14.6892 a 69.634,69.634 0 0 0 0.6954,-9.9088 c -0.087,-1.043 5.1283,-11.6474 4.9545,-23.2078 -0.1738,-11.5604 -2.607,-22.5115 -3.737,-27.9004 -1.13,-5.3889 -2.3468,-15.2976 -2.6075,-18.7745 a 31.6532,31.6532 0 0 0 -1.7383,-8.2575 5.0664,5.0664 0 0 1 -0.6086,-2.7813 c 0,-1.3036 0.4348,-6.5189 0,-9.3 -0.1156,-0.74 -0.2128,-1.8488 -0.293,-3.0782 H 97.836 v 0.5023 l -0.0734,-0.5023 H 74.1458 c -0.08,1.2294 -0.1773,2.3384 -0.2931,3.0782 -0.4346,2.7815 0,7.9968 0,9.3 A 5.0678,5.0678 0 0 1 73.2443,3.9927 31.6532,31.6532 0 0 0 71.506,12.25 c -0.2608,3.4769 -1.4777,13.3856 -2.6075,18.7745 -1.1298,5.3889 -3.5638,16.3408 -3.7376,27.9012 -0.1738,11.5604 5.0415,22.1648 4.9545,23.2078 a 69.619,69.619 0 0 0 0.6954,9.9088 c 0.5216,3.1291 0.7824,5.65 -1.13,14.6892 -1.9124,9.0392 1.2168,21.5565 1.2168,21.5565 a 45.623,45.623 0 0 0 1.51,7.0676 c 2.109,6.5675 4.2741,16.5037 4.3145,19.3243 0.0404,2.8206 0.3784,3.958 0.0966,4.7156 -0.2818,0.7576 0.1632,2.5686 -0.0494,2.7369 -0.2126,0.1683 -0.7965,1.01 -2.4736,3.1155 a 36.3722,36.3722 0 0 1 -5.6661,5.4735 11.4377,11.4377 0 0 1 -2.8868,0.926 c -0.7792,0.1261 -1.6612,1.1789 -1.9991,1.5155 -0.3379,0.3366 0.2039,1.0108 0.2039,1.0108 a 1.0681,1.0681 0 0 0 0.8041,0.7156 c 0.7026,0.2106 0.69,-0.2106 0.69,-0.2106 a 1.0064,1.0064 0 0 0 0.8,0.59 c 0.6115,0.0841 0.65,-0.0844 0.65,-0.0844 a 1.1723,1.1723 0 0 0 1.06,0.5474 c 0.8276,0.0424 1.4079,-0.9263 1.4079,-0.9263 0,0 0.0785,1.179 1.7225,0.8843 1.644,-0.2947 0.2115,-0.2108 3.3429,-0.2108 3.1314,0 2.6425,-0.3786 3.541,-0.884 0.8985,-0.5054 2.2056,-0.4208 4.644,-0.3368 2.4384,0.084 3.2239,0.1685 4.3953,-1.3892 1.1714,-1.5577 0.4469,-2.5264 -0.4,-4.6732 -0.8469,-2.1468 -1.1365,-3.116 -0.92,-4.6315 0.2165,-1.5155 0.7154,-2.2736 0.3223,-3.7892 -0.3931,-1.5156 -1.0894,-4.4629 -0.7525,-10.6939 0.5331,-9.8575 4.0652,-20.82 4.7651,-30.0929 0.3476,-4.6069 -0.6083,-14.8633 -1.2169,-16.9494 a 6.1709,6.1709 0 0 1 0,-3.8244 c 0.174,-1.13 0.4348,-8.17 0.9561,-10.43 a 189.8126,189.8126 0 0 0 5.3889,-29.9 C 96.5389,42.5867 95.0178,36.9368 95.3655,36.4588 a 3.0394,3.0394 0 0 0 0.869,-1.4777 c 0.1738,-0.8264 1.5646,-1.174 1.5646,-1.174 z"
     id="path5" />
  <path
     class="cls-3"
     d="m 71.17,95.1253 a 25.6031,25.6031 0 0 0 1.8576,5.3046 c 1.0431,1.8252 1.3908,8.3442 1.8254,11.6471 0.4346,3.3029 1.6514,16.2112 1.6514,16.2112 0,0 0.652,18.8579 0.652,19.9011 0,1.0432 -1.5326,-0.455 -1.5326,-0.455"
     id="path6" />
  <path
     class="cls-3"
     d="m 89.0256,103.0671 c 0,0 -6.9582,6.0544 -7.48,14.225 -0.5218,8.1706 0,10.9961 0,10.9961 0,0 2.4776,16.12 2.9556,16.8589 0.478,0.7389 1.1926,-0.6929 1.1926,-0.6929"
     id="path7" />
  <path
     class="cls-3"
     d="m 84.6391,48.8 c 0,0 -0.2249,9.691 -1.0072,11.69 -0.7823,1.999 -4.6068,5.7367 -5.3022,10.0826 -0.6954,4.3459 0.434,13.1249 1.5642,15.1676"
     id="path8" />
  <path
     class="cls-3"
     d="m 73.0277,80.6551 c 0,0 0.1738,-3.39 -0.6954,-4.9543 -0.8692,-1.5643 -3.6506,-3.9986 -4.0852,-12.43 C 67.8125,54.8394 68.1603,50.4937 70.1594,43.8878 72.1585,37.2819 73.81,33.1972 73.81,33.1972"
     id="path9" />
  <path
     class="cls-3"
     d="M 96.4985,34.5033 A 51.1849,51.1849 0 0 1 87.5425,20.3327 C 83.979,11.8144 85.0219,10.9453 82.849,9.5545 80.6761,8.1637 74.7177,4.9425 73.7419,2.6419"
     id="path10" />
  <path
     class="cls-3"
     d="m 84.4134,21.7236 c 0,0 6.3735,36.3676 5.7369,51.9777 -0.6366,15.6101 0.29,11.3606 0.29,11.3606"
     id="path11" />
  <path
     class="cls-3"
     d="m 90.4979,30.9369 c 0,0 4.5924,19.4854 -0.4853,34.6016"
     id="path12" />
  <path
     class="cls-3"
     d="m 96.3211,-5.57 a 3.6551,3.6551 0 0 0 -2.3468,-1.3038 c -1.3908,-0.087 -6.6928,0.4346 -7.2143,0.7822 -0.5215,0.3476 -1.13,1.13 -1.2169,2.9553 -0.0869,1.8253 1.4777,5.5628 1.8253,7.2143 a 27.9544,27.9544 0 0 1 0.9562,6.8666 c 0,3.2161 3.9981,11.3 5.0413,14.4287 1.0432,3.1287 1.9121,4.52 2.6944,4.52"
     id="path13" />
  <path
     class="cls-3"
     d="m 73.7777,-0.6965 c 0,0 6.463,7.0348 8.5492,7.3826 2.0862,0.3478 3.7375,-0.6086 3.5637,-1.8254 -0.1738,-1.2168 -1.7383,-4.6936 -1.9122,-5.9974 -0.1739,-1.3038 0.1739,-2.4337 -0.4346,-2.9553"
     id="path14" />
  <path
     class="cls-3"
     d="m 124.4283,95.1253 a 25.6031,25.6031 0 0 1 -1.8576,5.3046 c -1.0431,1.8252 -1.3908,8.3442 -1.8254,11.6471 -0.4346,3.3029 -1.6514,16.2112 -1.6514,16.2112 0,0 -0.6521,18.8579 -0.6521,19.9011 0,1.0432 1.5325,-0.455 1.5325,-0.455"
     id="path15" />
  <path
     class="cls-3"
     d="m 106.5728,103.0671 c 0,0 6.9582,6.0544 7.48,14.225 0.5218,8.1706 0,10.9961 0,10.9961 0,0 -2.4776,16.12 -2.9556,16.8589 -0.478,0.7389 -1.1925,-0.6929 -1.1925,-0.6929"
     id="path16" />
  <path
     class="cls-3"
     d="m 110.9593,48.8 c 0,0 0.2249,9.691 1.0072,11.69 0.7823,1.999 4.6068,5.7367 5.3022,10.0826 0.6954,4.3459 -0.434,13.1249 -1.5642,15.1676"
     id="path17" />
  <path
     class="cls-3"
     d="m 122.5707,80.6551 c 0,0 -0.1739,-3.39 0.6954,-4.9543 0.8693,-1.5643 3.6506,-3.9986 4.0852,-12.43 0.4346,-8.4314 0.0868,-12.7771 -1.9123,-19.383 -1.9991,-6.6059 -3.6506,-10.6909 -3.6506,-10.6909"
     id="path18" />
  <path
     class="cls-3"
     d="m 99.1,34.5033 a 51.1849,51.1849 0 0 0 8.956,-14.1706 c 3.5635,-8.5183 2.5206,-9.3874 4.6935,-10.7782 2.1729,-1.3908 8.1313,-4.612 9.1069,-6.9126"
     id="path19" />
  <path
     class="cls-3"
     d="m 111.1849,21.7236 c 0,0 -6.3734,36.3676 -5.7368,51.9777 0.6366,15.6101 -0.29,11.3606 -0.29,11.3606"
     id="path20" />
  <path
     class="cls-3"
     d="m 105.1,30.9369 c 0,0 -4.5923,19.4854 0.4853,34.6016"
     id="path21" />
  <path
     class="cls-3"
     d="m 99.2773,-5.57 a 3.6551,3.6551 0 0 1 2.3468,-1.3038 c 1.3908,-0.087 6.6927,0.4346 7.2143,0.7822 0.5216,0.3476 1.13,1.13 1.2169,2.9553 0.0869,1.8253 -1.4777,5.5628 -1.8254,7.2143 a 27.96,27.96 0 0 0 -0.9561,6.8666 c 0,3.2161 -3.9981,11.3 -5.0413,14.4287 -1.0432,3.1287 -1.9121,4.52 -2.6945,4.52"
     id="path22" />
  <path
     class="cls-3"
     d="m 121.8207,-0.6965 c 0,0 -6.463,7.0348 -8.5492,7.3826 -2.0862,0.3478 -3.7375,-0.6086 -3.5637,-1.8254 0.1738,-1.2168 1.7383,-4.6936 1.9122,-5.9974 0.1739,-1.3038 -0.1739,-2.4337 0.4346,-2.9553"
     id="path23" />
  <path
     class="cls-3"
     d="m 97.84,-3.8251 c 0,0 -0.4171,31.9169 -0.3128,33.1685"
     id="path24" />
  <path
     class="cls-3"
     d="m 73.0277,100.43 c 0,0 1.9995,2.6936 3.39,2.9544 1.3905,0.2608 4.8676,-1.13 6.3451,-3.4768 a 11.2791,11.2791 0 0 0 1.5645,-5.0414 l -0.491,-7.0078"
     id="path25" />
  <path
     class="cls-3"
     d="m 122.5707,100.43 c 0,0 -1.9995,2.6936 -3.39,2.9544 -1.3905,0.2608 -4.8675,-1.13 -6.3449,-3.4768 a 11.2776,11.2776 0 0 1 -1.5645,-5.0414 l 0.491,-7.0078"
     id="path26" />
</svg>
